<svg width="331" height="55" viewBox="0 0 331 55" fill="none" xmlns="http://www.w3.org/2000/svg">
    <path fill-rule="evenodd" clip-rule="evenodd" d="M25.2683 12.5492C25.2683 12.4204 31.3929 1.99016 32.1522 0.815148C32.2843 0.605899 32.4329 0.461035 32.4659 0.509323C32.6475 0.686379 54.9831 38.496 54.9831 38.6248C54.9831 38.834 44.3353 38.8018 43.2457 38.6087C42.0241 38.3833 40.7695 37.7556 39.9276 36.9508C39.3993 36.4518 37.3358 33.1038 32.2348 24.4924C28.4049 18.0057 25.2683 12.6296 25.2683 12.5492ZM198.919 10.6821C200.173 6.03032 203.492 2.90769 207.883 2.24775C209.071 2.07069 211.316 2.15118 212.455 2.40871C212.868 2.50529 213.842 2.8755 214.618 3.22961C215.757 3.76078 216.269 4.13099 217.342 5.19333C218.861 6.69026 219.653 8.01014 220.33 10.1992C220.726 11.4869 220.776 11.9054 220.776 13.9818C220.776 16.6215 220.495 17.9253 219.521 19.9695C217.722 23.736 214.668 25.7319 210.342 25.9894C204.664 26.3274 200.173 22.8668 198.836 17.1205C198.424 15.3177 198.457 12.4205 198.919 10.6821ZM216.186 11.6478C215.526 9.20124 214.205 7.44677 212.389 6.56149C211.564 6.17519 211.085 6.04642 210.062 5.99813C207.932 5.90155 206.513 6.44882 205.109 7.88137C203.624 9.42659 202.98 11.2615 202.996 13.9818C203.029 18.4404 205.225 21.5308 208.708 22.0137C212.208 22.4805 215.245 20.4363 216.186 16.9434C216.533 15.6879 216.533 12.9194 216.186 11.6478ZM278.999 2.23163C274.427 2.93986 270.91 6.40051 269.887 11.1971C269.458 13.193 269.54 15.9938 270.085 17.8287C270.811 20.3236 272.314 22.5931 274.113 23.913C276.21 25.4421 277.91 25.9733 280.733 25.9572C284.15 25.9572 286.197 25.1846 288.327 23.0921C290.208 21.2411 291.249 19.1486 291.727 16.3318C291.991 14.6578 291.843 11.6639 291.397 10.1509C290.242 6.27174 287.369 3.39055 283.721 2.47307C282.483 2.16725 280.172 2.05458 278.999 2.23163ZM282.384 6.17517C285.669 6.99606 287.765 10.5533 287.534 14.867C287.402 17.3136 286.659 19.0842 285.223 20.3719C282.615 22.7058 278.603 22.6575 276.309 20.2753C273.436 17.2814 273.255 11.1327 275.929 8.0745C277.497 6.30393 279.973 5.57961 282.384 6.17517ZM79.2506 25.41V14.0623V2.71462L82.4366 2.71462H85.6062L87.8183 10.9719C89.0399 15.4949 90.0799 19.2614 90.146 19.3418C90.1955 19.4062 91.252 15.7041 92.4736 11.1328L94.6857 2.7951L97.8718 2.74681L101.041 2.71462V14.0623V25.41H98.8788H96.7162L96.8153 23.1888C96.8648 21.9816 96.9473 18.6658 96.9968 15.8329C97.0464 13 97.1289 9.81297 97.1784 8.75063C97.2445 7.68829 97.228 6.8674 97.1784 6.91568C97.0959 6.99616 92.1269 25.1203 92.1269 25.3457C92.1269 25.3778 91.2355 25.41 90.1625 25.41C88.4291 25.41 88.1815 25.3778 88.0989 25.1203C88.0494 24.9754 86.9269 20.8227 85.6062 15.9134C84.2691 11.0041 83.1465 6.94788 83.097 6.89959C83.0474 6.8513 83.0474 7.97802 83.1135 9.39447C83.163 10.8109 83.2455 14.4325 83.2951 17.4425C83.3446 20.4525 83.4271 23.4785 83.4767 24.1545L83.5592 25.41H81.4131H79.2506ZM106.324 14.0623V25.41H108.47H110.616V24.0741L110.632 22.7542L115.865 16.6538L121.099 10.5373L121.148 17.9737L121.181 25.41H123.327H125.473V14.0623V2.71462H123.327H121.181V3.97011V5.24169L115.948 11.3421L110.698 17.4425L110.649 10.0705L110.616 2.71462H108.47H106.324V14.0623ZM130.756 25.41V14.0623V2.71462H132.985H135.213V6.98007V11.2455H140.248H145.283V6.98007V2.71462H147.429H149.575V14.0623V25.41H147.429H145.283V20.2593V15.1086H140.248H135.213V20.2593V25.41H132.985H130.756ZM155.024 14.0623V25.41H157.17H159.317V15.9939V6.57767L164.269 6.57767H169.221V15.9939V25.41H171.368H173.514V14.0623V2.71462H164.269H155.024V14.0623ZM178.958 25.41V14.0623V2.71462H184.126C189.804 2.71462 190.564 2.81119 192.347 3.69647C195.929 5.45094 197.299 10.1027 195.384 13.9336C194.724 15.2373 193.915 16.0099 192.479 16.7182C191.026 17.4425 189.441 17.6839 186.14 17.6839H183.251V21.547V25.41H181.105H178.958ZM190.696 7.33418C190.333 7.01226 189.755 6.67424 189.408 6.57767C189.061 6.46499 187.543 6.33623 186.024 6.30403L183.251 6.22355V10.2637V14.3038H185.529C188.154 14.3038 189.474 14.0462 190.349 13.3541C192.149 11.9537 192.33 8.76673 190.696 7.33418ZM225.015 14.0623V25.41H227.079H229.142V24.3155C229.142 23.72 229.06 19.9696 228.961 15.9939C228.862 12.002 228.812 8.34823 228.845 7.86535C228.895 7.09274 229.175 8.02631 231.371 16.2031L233.847 25.41L235.828 25.3778L237.809 25.3296L240.236 16.3963C241.557 11.487 242.696 7.35028 242.745 7.22151C242.828 6.98007 242.778 11.7767 242.564 20.6134L242.465 25.41H244.545H246.641V14.0623V2.71462H243.521C240.434 2.71462 240.401 2.71462 240.302 3.06873C240.282 3.15227 240.112 3.79249 239.843 4.80813L239.838 4.826L239.836 4.83334L239.831 4.85451C239.425 6.3844 238.8 8.74133 238.123 11.326C236.967 15.6558 235.977 19.2614 235.911 19.3418C235.861 19.4062 234.854 15.9295 233.682 11.6157C232.527 7.28589 231.503 3.51942 231.421 3.22969L231.272 2.71462H228.152H225.015V14.0623ZM250.11 6.41671V4.56566V2.71462H258.694H267.279V4.56566V6.41671L264.027 6.4489L260.758 6.49719L260.708 15.9456L260.675 25.41H258.529H256.383V15.9134V6.41671H253.247H250.11ZM296.167 14.0623V25.41H298.396H300.624V21.5631V17.7161L304.058 17.6517C307.987 17.5713 308.928 17.362 310.678 16.2192C312.708 14.8993 313.6 12.8712 313.468 9.84516C313.402 8.29994 313.336 7.96193 312.873 7.01226C312.23 5.67629 310.991 4.35641 309.72 3.71257C308.02 2.81119 307.211 2.71462 301.417 2.71462H296.167V14.0623ZM306.732 6.57767C308.35 7.15712 309.077 8.26775 309.06 10.1832C309.044 12.0825 308.449 13.0966 306.914 13.7887C306.072 14.175 305.758 14.2233 303.315 14.2716L300.624 14.336V10.2798V6.22355L303.398 6.28794C305.016 6.33623 306.386 6.4489 306.732 6.57767ZM316.804 25.41V14.0623V2.71462H323.82H330.836V4.64614V6.57767H326.049H321.261V15.9939V25.41H319.033H316.804ZM12.078 34.7295C5.90395 45.1758 0.835938 53.7711 0.835938 53.8194C0.835938 53.8677 4.07154 53.8838 8.0335 53.8677L15.2476 53.8194L22.148 42.1498C25.9614 35.7275 29.1805 30.126 29.3125 29.6915C29.6262 28.6774 29.6262 26.7781 29.3125 25.8928C29.0814 25.2328 23.9144 16.3639 23.5347 15.9454C23.3696 15.7684 21.0585 19.5831 12.078 34.7295ZM99.356 38.8662C100.578 34.6974 103.813 31.5908 107.726 30.8021C109.112 30.5285 111.754 30.5929 113.091 30.947C116.723 31.9128 119.562 34.794 120.718 38.6892C121.048 39.7998 121.097 40.3149 121.081 42.5522C121.081 44.8862 121.031 45.2564 120.619 46.5763C119.958 48.7009 119.149 50.0691 117.713 51.5016C116.359 52.8537 114.94 53.6585 113.074 54.1575C111.622 54.5438 108.584 54.5438 107.164 54.1736C103.335 53.1595 100.578 50.3749 99.356 46.2221C98.8113 44.4033 98.8113 40.7173 99.356 38.8662ZM116.888 42.8098C116.871 38.7375 114.775 35.4378 111.688 34.6652C110.483 34.3755 109.492 34.3755 108.303 34.6813C105.2 35.5022 103.351 38.3673 103.351 42.3913C103.351 45.9002 104.87 48.8297 107.296 49.9886C108.138 50.391 108.386 50.4393 110.037 50.4393C111.754 50.4393 111.919 50.4071 112.959 49.9081C114.147 49.3448 115.336 48.202 115.914 47.0913C116.442 46.0934 116.888 44.1297 116.888 42.8098ZM132.82 30.7859C128.94 31.5264 126.15 33.989 124.846 37.836C123.608 41.4737 123.856 45.546 125.506 48.9101C126.381 50.6967 128.28 52.5961 129.98 53.3848C134.668 55.5738 140.248 54.4632 143.187 50.7289C144.062 49.6022 145.036 47.7995 144.837 47.6063C144.689 47.4614 141.173 46.0128 140.975 46.0128C140.892 46.0128 140.826 46.0933 140.826 46.1898C140.826 46.6727 139.835 48.218 139.027 48.9584C137.755 50.1495 136.567 50.568 134.85 50.4875C131.07 50.2782 128.775 47.1878 128.775 42.3107C128.775 39.5905 129.534 37.5141 131.02 36.0815C132.209 34.9548 133.364 34.5202 135.213 34.5202C136.798 34.5041 137.673 34.8099 138.746 35.7113C139.324 36.2103 140.166 37.5463 140.166 37.997C140.182 38.6247 140.397 38.6408 142.526 38.1096L144.606 37.5946L144.194 36.5322C143.137 33.7637 141.024 31.8 138.185 30.9791C136.93 30.6089 134.256 30.5123 132.82 30.7859ZM149.048 36.1944C150.583 33.1361 153.29 31.2368 156.922 30.6573C157.78 30.5285 160.686 30.7056 161.61 30.947C164.087 31.607 166.051 33.2166 167.207 35.5505C167.287 35.7141 167.361 35.8641 167.43 36.0021C167.825 36.7953 168.02 37.1873 167.9 37.4332C167.783 37.6735 167.366 37.7745 166.54 37.9741C166.391 38.0103 166.228 38.0497 166.051 38.0937C164.928 38.3834 163.971 38.6088 163.905 38.6088C163.822 38.6088 163.773 38.48 163.773 38.319C163.773 37.804 162.997 36.4358 162.353 35.8402C161.313 34.8745 160.29 34.5043 158.655 34.5043C157.434 34.5043 157.12 34.5687 156.179 35.0033C153.67 36.1622 152.234 38.818 152.217 42.2626C152.217 45.8681 153.752 48.9102 156.179 50.0209C156.955 50.375 157.302 50.4394 158.655 50.4394C159.976 50.4394 160.356 50.375 161.049 50.037C162.188 49.4897 163.294 48.3791 163.938 47.0914C164.351 46.2705 164.549 46.029 164.747 46.0934C166.662 46.7856 168.395 47.5743 168.395 47.7835C168.395 48.2503 167.058 50.3589 166.15 51.3085C164.961 52.5801 163.69 53.3688 161.957 53.9483C160.735 54.3668 160.306 54.4312 158.655 54.4473C156.427 54.4634 155.453 54.2702 153.587 53.401C149.526 51.5178 147.413 47.4133 147.644 41.828C147.743 39.2687 147.991 38.2707 149.048 36.1944ZM79.2506 42.5522V53.8999H81.3966H83.5427V50.053V46.206L86.9764 46.1255C89.3536 46.0772 90.6577 45.9807 91.285 45.8036C94.7352 44.8218 96.5842 42.3752 96.5842 38.7696C96.5842 35.6792 95.0324 33.1682 92.4076 32.0254C90.7237 31.2689 90.0139 31.2045 84.4506 31.2045H79.2506V42.5522ZM89.4031 34.9871C91.318 35.4861 92.1269 36.5484 92.1269 38.6248C92.1269 39.6066 92.0444 39.9929 91.6977 40.6851C90.8558 42.3108 89.304 42.8419 85.6062 42.7615L83.6252 42.7132L83.5757 38.7214L83.5427 34.7456H85.9859C87.6532 34.7456 88.7428 34.8261 89.4031 34.9871ZM171.696 53.8999V42.5522V31.2045H173.924H176.153L176.186 38.5282L176.235 45.8519L181.402 39.8159L186.553 33.7799V32.4922V31.2045H188.699H190.845V42.5522V53.8999H188.699H186.553L186.52 46.4957L186.47 39.0916L181.32 45.1276L176.153 51.1636V52.5318V53.8999H173.924H171.696ZM196.292 42.5522V53.8999H198.438H200.584V52.564V51.2441L205.834 45.1276L211.067 39.0272L211.116 46.4636L211.149 53.8999H213.296H215.442V42.5522V31.2045H213.296H211.149V32.4439V33.6994L205.9 39.8159L200.667 45.9324L200.617 38.5604L200.584 31.2045H198.438H196.292V42.5522ZM25.2024 43.5825C25.8627 42.9064 26.358 42.5845 27.497 42.1177C28.1078 41.8602 29.2964 41.8441 42.5855 41.8763L57.0136 41.9085L60.5464 47.864L64.0626 53.8196L52.7545 53.8679C46.5309 53.8839 36.3619 53.8839 30.1548 53.8679L18.8797 53.8196L21.7192 49.0229C23.2874 46.3671 24.8392 43.9366 25.2024 43.5825Z" fill="#9A9EA9"/>
</svg>
