<svg width="140" height="150" viewBox="0 0 140 150" fill="none" xmlns="http://www.w3.org/2000/svg">
<path d="M111.398 120.707V127.337H111.005L108.161 124.093C107.871 123.754 107.597 123.446 107.338 123.172C107.068 122.886 106.798 122.641 106.523 122.437C106.244 122.229 105.955 122.065 105.65 121.95C105.341 121.834 105.011 121.772 104.664 121.772C104.321 121.772 104.015 121.827 103.724 121.942C103.441 122.055 103.194 122.212 102.982 122.415C102.767 122.622 102.605 122.865 102.49 123.136C102.369 123.421 102.321 123.725 102.321 124.019C102.321 124.322 102.378 124.618 102.484 124.894C102.592 125.17 102.753 125.421 102.976 125.632V125.633C102.98 125.637 102.984 125.641 102.988 125.646V125.645C103.204 125.855 103.462 126.015 103.754 126.13C103.919 126.195 104.092 126.239 104.271 126.267V127.149C104.084 127.121 103.891 127.078 103.695 127.018C103.344 126.909 103.013 126.728 102.718 126.483C102.503 126.304 102.314 126.082 102.148 125.811L101.991 125.522C101.812 125.147 101.71 124.666 101.71 124.069C101.71 123.545 101.792 123.094 101.945 122.709C102.102 122.316 102.313 121.992 102.574 121.723C102.834 121.46 103.142 121.257 103.498 121.113C103.852 120.971 104.234 120.898 104.646 120.897C104.979 120.897 105.279 120.937 105.547 121.017L105.55 121.018C105.833 121.1 106.098 121.216 106.361 121.374C106.626 121.536 106.882 121.724 107.133 121.947V121.948C107.389 122.182 107.646 122.442 107.896 122.733L107.898 122.735L110.006 125.153L111.133 126.447L110.877 124.75C110.862 124.653 110.853 124.551 110.835 124.39H110.836L110.809 123.938C110.803 123.764 110.798 123.568 110.798 123.353V120.707H111.398Z" fill="#9A9FAB" stroke="#9A9FAB"/>
<path d="M106.643 109.904C107.349 109.904 108.008 109.994 108.627 110.166C109.237 110.336 109.761 110.589 110.208 110.924C110.649 111.254 110.993 111.66 111.245 112.151L111.247 112.155C111.496 112.632 111.63 113.199 111.63 113.883V114.086C111.605 114.685 111.476 115.195 111.252 115.628C110.992 116.129 110.652 116.534 110.216 116.855L110.214 116.856C109.772 117.186 109.249 117.44 108.646 117.604C108.031 117.771 107.376 117.86 106.682 117.86C105.984 117.86 105.282 117.77 104.657 117.589C104.032 117.408 103.503 117.148 103.057 116.809C102.67 116.515 102.356 116.162 102.109 115.749L102.008 115.568C101.763 115.095 101.632 114.539 101.632 113.888C101.632 113.15 101.772 112.554 102.032 112.079L102.035 112.074C102.302 111.573 102.662 111.172 103.108 110.852L103.107 110.851C103.56 110.532 104.093 110.29 104.698 110.142L104.702 110.141C105.326 109.983 105.972 109.904 106.643 109.904ZM111.041 113.77L111.031 113.75C111.012 113.277 110.882 112.839 110.622 112.454C110.361 112.055 110.011 111.739 109.6 111.49C109.187 111.24 108.719 111.06 108.207 110.943C107.703 110.829 107.181 110.769 106.643 110.769C106.133 110.769 105.63 110.823 105.128 110.931H105.127C104.621 111.041 104.154 111.215 103.737 111.457C103.31 111.705 102.956 112.029 102.683 112.42C102.383 112.848 102.249 113.351 102.249 113.899C102.249 114.426 102.386 114.907 102.667 115.321C102.93 115.71 103.28 116.035 103.709 116.284C104.12 116.532 104.585 116.711 105.096 116.832C105.608 116.953 106.131 117.013 106.676 117.013C107.217 117.013 107.723 116.959 108.225 116.844C108.728 116.728 109.191 116.554 109.605 116.303L109.604 116.302C110.027 116.051 110.37 115.727 110.631 115.335L110.634 115.33C110.905 114.911 111.041 114.423 111.041 113.888V113.77Z" fill="#9A9FAB" stroke="#9A9FAB"/>
<path d="M111.398 100.87V107.5H111.005L108.161 104.255C107.871 103.916 107.597 103.609 107.338 103.334C107.068 103.048 106.798 102.804 106.523 102.599C106.244 102.391 105.955 102.227 105.65 102.113C105.341 101.997 105.011 101.935 104.664 101.935C104.321 101.935 104.015 101.989 103.724 102.105C103.441 102.217 103.194 102.375 102.982 102.578C102.767 102.785 102.605 103.028 102.49 103.298C102.369 103.584 102.321 103.888 102.321 104.181C102.321 104.484 102.378 104.781 102.484 105.056C102.592 105.333 102.753 105.584 102.976 105.794V105.795C102.98 105.8 102.984 105.804 102.988 105.808V105.807C103.204 106.018 103.462 106.178 103.754 106.292C103.919 106.357 104.092 106.401 104.271 106.429V107.312C104.084 107.283 103.891 107.241 103.695 107.18C103.344 107.072 103.013 106.891 102.718 106.646C102.503 106.467 102.314 106.245 102.148 105.973L101.991 105.685C101.812 105.31 101.71 104.829 101.71 104.232C101.71 103.707 101.792 103.257 101.945 102.872C102.102 102.479 102.313 102.155 102.574 101.885C102.834 101.622 103.142 101.419 103.498 101.276C103.852 101.133 104.234 101.06 104.646 101.06C104.979 101.06 105.279 101.1 105.547 101.179L105.55 101.18C105.833 101.263 106.098 101.379 106.361 101.537C106.626 101.699 106.882 101.886 107.133 102.11V102.111C107.389 102.344 107.646 102.605 107.896 102.896L107.898 102.898L110.006 105.316L111.133 106.61L110.877 104.913C110.862 104.816 110.853 104.714 110.835 104.552H110.836L110.809 104.1C110.803 103.926 110.798 103.73 110.798 103.515V100.87H111.398Z" fill="#9A9FAB" stroke="#9A9FAB"/>
<path d="M108.568 91.6392C109.026 91.6392 109.412 91.7206 109.782 91.8853V91.8862C110.158 92.0557 110.483 92.2871 110.76 92.5767V92.5757C111.031 92.8644 111.244 93.2104 111.409 93.6206H111.41C111.567 94.0257 111.652 94.468 111.652 94.9507C111.652 95.3749 111.601 95.7953 111.503 96.1997C111.41 96.5835 111.255 96.928 111.04 97.2319C110.832 97.5257 110.556 97.7737 110.199 97.9751C109.977 98.1002 109.713 98.1977 109.401 98.2642V97.3677C109.585 97.3075 109.759 97.2328 109.919 97.1343C110.169 96.98 110.394 96.7883 110.569 96.5542L110.574 96.5483C110.735 96.326 110.858 96.0841 110.937 95.813C111.012 95.5544 111.046 95.3002 111.046 95.0464C111.046 94.7003 110.985 94.3708 110.867 94.062C110.749 93.7524 110.58 93.477 110.357 93.2417C110.138 93.0101 109.882 92.8264 109.585 92.6929C109.276 92.5541 108.946 92.4917 108.608 92.4917C108.268 92.4917 107.952 92.5549 107.651 92.6831C107.357 92.8085 107.098 92.985 106.881 93.2134C106.654 93.446 106.484 93.7236 106.367 94.0249L106.366 94.0288C106.248 94.3403 106.187 94.6751 106.187 95.0347V97.2886L105.747 97.7739L101.891 97.272V92.4009H102.496V96.0542H102.96L102.929 96.5503L105.024 96.813L105.587 96.8833V94.6821C105.587 94.2036 105.663 93.7791 105.807 93.4077C105.953 93.0287 106.155 92.7139 106.406 92.4595C106.66 92.2032 106.966 92.0003 107.331 91.8569L107.333 91.856C107.689 91.7147 108.098 91.6392 108.568 91.6392Z" fill="#9A9FAB" stroke="#9A9FAB"/>
<path d="M94.875 126.587L72.5557 103.031L94.875 84.4688V126.587ZM71.0957 102.944L44.0078 125.471L63.2324 94.6465L71.0957 102.944ZM94.4053 83.5586L71.8662 102.304L63.7793 93.7695L74.918 75.9111L94.4053 83.5586ZM73.9707 75.5391L63.0684 93.0195L30.2471 58.3799L73.9707 75.5391ZM94.875 82.6689L75.4561 75.0479L94.875 43.9121V82.6689Z" fill="#9A9FAB" stroke="#9A9FAB"/>
<path d="M73.4648 69.4214L59.3271 62.6919L73.4648 57.4585V69.4214Z" fill="#9A9FAB" stroke="#9A9FAB"/>
<path d="M106.188 26.0889L106.301 26.4326H106.663L112.022 26.4277L107.694 29.5576L107.397 29.7715L107.512 30.1191L109.283 35.5176L103.896 32.8994L103.575 32.7441L103.323 32.9961L97.3184 39.002L100.663 32.0088L100.896 31.5225L100.393 31.3271L87.8408 26.4473L102.398 26.4385L102.761 26.4375L102.873 26.0928L104.523 21.0244L106.188 26.0889Z" fill="#9A9FAB" stroke="#9A9FAB"/>
<path d="M35.5039 19.9561V20.9375H32.8467V20.625L32.125 20.9844L32.1133 20.9902L32.2168 21.4316H31.8467V22.9785H33.5186C33.979 22.9785 34.3689 23.0447 34.6904 23.165C35.0288 23.2917 35.3039 23.4571 35.5205 23.6543C35.737 23.8514 35.9015 24.0865 36.0078 24.3506L36.0098 24.3574C36.1222 24.6256 36.1797 24.923 36.1797 25.25C36.1796 25.6151 36.1077 25.9294 35.9775 26.1924L35.9766 26.1953C35.839 26.4776 35.6523 26.7128 35.418 26.9092C35.1881 27.1018 34.9027 27.2532 34.5615 27.3662C34.2294 27.4762 33.8662 27.5312 33.4736 27.5312H30.4355V19.9561H35.5039ZM31.8418 26.5439H33.4287C33.5939 26.5439 33.7516 26.5209 33.8945 26.4814L33.9062 26.4785L33.918 26.4746C34.0449 26.4326 34.2095 26.3614 34.3545 26.2334L34.3555 26.2344C34.3574 26.2327 34.3585 26.2302 34.3604 26.2285C34.3629 26.2262 34.3666 26.225 34.3691 26.2227L34.3682 26.2217C34.5006 26.1054 34.6028 25.9653 34.6738 25.8066C34.7537 25.6281 34.7851 25.4378 34.7852 25.2441C34.7852 25.0515 34.7538 24.8512 34.6582 24.6611C34.5793 24.5043 34.4734 24.3644 34.3281 24.251C34.2012 24.1519 34.0463 24.0702 33.877 24.0234C33.7369 23.9848 33.5816 23.9605 33.4229 23.96H31.8418V26.5439Z" fill="#9A9FAB" stroke="#9A9FAB"/>
<path d="M41.8359 19.9507C42.2517 19.9507 42.6214 20.0155 42.9473 20.145L42.9531 20.147C43.2885 20.2755 43.5705 20.4547 43.8096 20.6782C44.0417 20.8952 44.2234 21.1607 44.3564 21.4722C44.4849 21.7731 44.5527 22.1138 44.5527 22.4956C44.5527 22.8784 44.4846 23.2247 44.3564 23.5249C44.2231 23.8371 44.0412 24.1022 43.8154 24.313L43.8125 24.3169C43.5823 24.5365 43.3086 24.7086 42.9756 24.8315H42.9736C42.6476 24.9536 42.2794 25.018 41.8643 25.0181H40.6514L40.6572 25.0239H39.916V27.5259H38.5215V19.9507H41.8359ZM39.9219 23.3286L39.2031 24.0425H41.7285C41.9345 24.0425 42.1293 23.9972 42.3115 23.9067C42.4723 23.8269 42.6283 23.7171 42.7617 23.5669C42.8875 23.4253 42.9832 23.2639 43.0527 23.0952L43.0557 23.0874C43.1325 22.8924 43.1641 22.6947 43.1641 22.4956C43.164 22.2965 43.1325 22.0988 43.0557 21.9038C42.9897 21.7364 42.9026 21.5748 42.7764 21.4243C42.6474 21.2706 42.4934 21.1523 42.332 21.0679L42.3232 21.063L42.1836 21.0034C42.0425 20.9525 41.8947 20.9263 41.7402 20.9263H39.9219V23.3286Z" fill="#9A9FAB" stroke="#9A9FAB"/>
<path d="M51.749 19.9507V20.9321H47.9062V23.3032H51.1797V24.2798H47.9062V26.5562H51.8047V27.5376H46.5176V19.9507H51.749Z" fill="#9A9FAB" stroke="#9A9FAB"/>
<path d="M55.5508 19.9507V23.2983H59.7959V19.9507H61.1963V27.5259H59.7959V24.2739H55.5508V27.5259H54.1562V19.9507H55.5508Z" fill="#9A9FAB" stroke="#9A9FAB"/>
<path d="M70.7695 19.9507V26.5503H71.7393V29.4634H70.3613V27.5259H64.6338V29.4634H63.251V26.5444H63.4707L63.6074 26.437C63.8345 26.258 64.0267 26.0161 64.1865 25.7251C64.3348 25.455 64.4636 25.1683 64.5732 24.8657C64.682 24.5656 64.7662 24.2723 64.832 23.9927C64.8961 23.7207 64.9398 23.4813 64.96 23.2905L64.9609 23.2915L65.3438 19.9507H70.7695ZM66.5811 21.3765L66.3506 23.4253C66.2914 23.9493 66.2001 24.3925 66.082 24.77C65.9639 25.1476 65.8133 25.4811 65.6211 25.7798L65.125 26.5503H69.3975V20.9321H66.6309L66.5811 21.3765Z" fill="#9A9FAB" stroke="#9A9FAB"/>
<path d="M35.6807 31.7949V32.7764H31.8438V39.376H30.4492V31.7949H35.6807Z" fill="#9A9FAB" stroke="#9A9FAB"/>
<path d="M41.3936 31.5713C41.9958 31.5713 42.5407 31.6764 43.0537 31.8809V31.8818C43.5791 32.0947 44.0274 32.3809 44.4141 32.7451C44.7998 33.1084 45.1006 33.5312 45.3223 34.0166C45.5387 34.4907 45.6494 35.0072 45.6494 35.5664C45.6494 36.1246 45.539 36.6365 45.3213 37.1182C45.1013 37.6049 44.7965 38.0271 44.4141 38.3926C44.0273 38.7568 43.5792 39.043 43.0537 39.2559C42.5354 39.4658 41.9853 39.5723 41.3936 39.5723C40.8007 39.5722 40.2389 39.4654 39.7217 39.2559C39.2639 39.0703 38.8631 38.8244 38.5137 38.5244L38.3672 38.3926C37.9849 38.0272 37.6799 37.6048 37.46 37.1182C37.2424 36.6368 37.1328 36.1193 37.1328 35.5664C37.1328 35.0087 37.2417 34.4969 37.459 34.0156L37.46 34.0166C37.6806 33.5334 37.9864 33.1093 38.3701 32.7432C38.7483 32.3823 39.1999 32.0956 39.7217 31.8818C40.2368 31.6731 40.7869 31.5713 41.3936 31.5713ZM41.3994 32.5469C41.0016 32.5469 40.6284 32.6221 40.2686 32.7803L40.2656 32.7812C39.9667 32.9152 39.6913 33.093 39.4502 33.3252L39.3486 33.4287C39.0888 33.7017 38.8886 34.0241 38.7441 34.3828C38.5943 34.7549 38.5215 35.1549 38.5215 35.5713C38.5215 35.9895 38.594 36.3831 38.7422 36.7578L38.7441 36.7607C38.8895 37.1216 39.0914 37.4457 39.3535 37.7197C39.6096 37.9875 39.9103 38.2047 40.2656 38.3613V38.3623C40.6233 38.5225 41.0037 38.5967 41.3994 38.5967C41.7951 38.5967 42.1755 38.5225 42.5332 38.3623C42.873 38.2101 43.181 37.9998 43.4443 37.7188L43.4453 37.7197C43.7074 37.4456 43.9093 37.1217 44.0547 36.7607C44.2046 36.3885 44.2773 35.9879 44.2773 35.5713C44.2773 35.1549 44.2045 34.7549 44.0547 34.3828C43.9079 34.0183 43.7054 33.7033 43.4492 33.4287L43.4453 33.4238L43.2422 33.2305C43.0304 33.0481 42.7926 32.8975 42.5332 32.7812C42.1755 32.621 41.7951 32.5469 41.3994 32.5469Z" fill="#9A9FAB" stroke="#9A9FAB"/>
<path d="M54.2871 31.7949V38.3945H55.2568V41.3076H53.8789V39.3701H48.1514V41.3076H46.7686V38.3887H46.9883L47.125 38.2812C47.3521 38.1022 47.5443 37.8604 47.7041 37.5693C47.8524 37.2993 47.9812 37.0125 48.0908 36.71C48.1995 36.4099 48.2837 36.1166 48.3496 35.8369C48.4137 35.5649 48.4574 35.3255 48.4775 35.1348L48.4785 35.1357L48.8613 31.7949H54.2871ZM50.0986 33.2148L49.8682 35.2637C49.8089 35.7878 49.7177 36.2318 49.5996 36.6094C49.4815 36.9866 49.3307 37.3197 49.1387 37.6182L48.6426 38.3887H52.915V32.7705H50.1484L50.0986 33.2148Z" fill="#9A9FAB" stroke="#9A9FAB"/>
<path d="M61.6123 31.7837L64.6982 39.3706H63.248L62.9219 38.5308L62.7979 38.2114H58.8447L58.7217 38.5327L58.3994 39.3706H56.9619L60.0479 31.7837H61.6123ZM60.3223 34.2573L60.2617 34.5308L59.4766 36.5669L59.2139 37.2466H62.4297L62.167 36.5669L61.3828 34.5376L61.3291 34.2651L61.25 33.8628H60.4072L60.3223 34.2573Z" fill="#9A9FAB" stroke="#9A9FAB"/>
<mask id="path-17-inside-1_51856_53367" fill="white">
<path d="M33.0174 51.1722H29.8115V44.3823H32.73C33.0174 44.3823 33.2765 44.4271 33.5132 44.5111C33.7498 44.6006 33.9583 44.7182 34.1273 44.8749C34.302 45.0316 34.4372 45.222 34.533 45.4403C34.6287 45.6586 34.6795 45.9049 34.6795 46.1736C34.6795 46.3247 34.6569 46.4758 34.6118 46.6214C34.5668 46.7669 34.4992 46.9012 34.4203 47.0244C34.3414 47.1475 34.2456 47.2595 34.1329 47.3546C34.0203 47.4498 33.9019 47.5226 33.778 47.5841C33.9583 47.6401 34.1273 47.7185 34.2851 47.8192C34.4428 47.9256 34.578 48.0487 34.702 48.1943C34.8203 48.3398 34.9161 48.5021 34.9837 48.6813C35.0513 48.8604 35.0851 49.0507 35.0851 49.2522C35.0851 49.5601 35.0288 49.8344 34.9161 50.0751C34.8034 50.3102 34.6513 50.5117 34.4597 50.674C34.2682 50.8363 34.0484 50.9595 33.8005 51.0435C33.5526 51.1274 33.2934 51.1722 33.0286 51.1722H33.0174ZM32.685 45.1268H30.7017V47.3211H32.6793C32.8258 47.3211 32.961 47.2931 33.0962 47.2371C33.2258 47.1811 33.3442 47.1028 33.4456 47.0076C33.547 46.9124 33.6259 46.7949 33.6822 46.6605C33.7385 46.5262 33.7724 46.3807 33.7724 46.2295C33.7724 46.0784 33.7442 45.9329 33.6822 45.7985C33.6259 45.6642 33.5414 45.5466 33.4456 45.4459C33.3442 45.3451 33.2315 45.2667 33.0962 45.2108C32.9667 45.1548 32.8258 45.1268 32.685 45.1268ZM32.9498 48.0208H30.7017V50.4165H32.9385C33.0906 50.4165 33.2427 50.3885 33.3892 50.327C33.5357 50.271 33.6653 50.187 33.778 50.0807C33.8907 49.9743 33.9808 49.8512 34.0541 49.7C34.1217 49.5545 34.1555 49.3866 34.1555 49.2074C34.1555 49.0395 34.1217 48.8828 34.0597 48.7373C33.9977 48.5917 33.9076 48.4686 33.8005 48.3566C33.6935 48.2503 33.5639 48.1663 33.4174 48.1047C33.2709 48.0431 33.1132 48.0152 32.9498 48.0152V48.0208Z"/>
</mask>
<path d="M33.0174 51.1722H29.8115V44.3823H32.73C33.0174 44.3823 33.2765 44.4271 33.5132 44.5111C33.7498 44.6006 33.9583 44.7182 34.1273 44.8749C34.302 45.0316 34.4372 45.222 34.533 45.4403C34.6287 45.6586 34.6795 45.9049 34.6795 46.1736C34.6795 46.3247 34.6569 46.4758 34.6118 46.6214C34.5668 46.7669 34.4992 46.9012 34.4203 47.0244C34.3414 47.1475 34.2456 47.2595 34.1329 47.3546C34.0203 47.4498 33.9019 47.5226 33.778 47.5841C33.9583 47.6401 34.1273 47.7185 34.2851 47.8192C34.4428 47.9256 34.578 48.0487 34.702 48.1943C34.8203 48.3398 34.9161 48.5021 34.9837 48.6813C35.0513 48.8604 35.0851 49.0507 35.0851 49.2522C35.0851 49.5601 35.0288 49.8344 34.9161 50.0751C34.8034 50.3102 34.6513 50.5117 34.4597 50.674C34.2682 50.8363 34.0484 50.9595 33.8005 51.0435C33.5526 51.1274 33.2934 51.1722 33.0286 51.1722H33.0174ZM32.685 45.1268H30.7017V47.3211H32.6793C32.8258 47.3211 32.961 47.2931 33.0962 47.2371C33.2258 47.1811 33.3442 47.1028 33.4456 47.0076C33.547 46.9124 33.6259 46.7949 33.6822 46.6605C33.7385 46.5262 33.7724 46.3807 33.7724 46.2295C33.7724 46.0784 33.7442 45.9329 33.6822 45.7985C33.6259 45.6642 33.5414 45.5466 33.4456 45.4459C33.3442 45.3451 33.2315 45.2667 33.0962 45.2108C32.9667 45.1548 32.8258 45.1268 32.685 45.1268ZM32.9498 48.0208H30.7017V50.4165H32.9385C33.0906 50.4165 33.2427 50.3885 33.3892 50.327C33.5357 50.271 33.6653 50.187 33.778 50.0807C33.8907 49.9743 33.9808 49.8512 34.0541 49.7C34.1217 49.5545 34.1555 49.3866 34.1555 49.2074C34.1555 49.0395 34.1217 48.8828 34.0597 48.7373C33.9977 48.5917 33.9076 48.4686 33.8005 48.3566C33.6935 48.2503 33.5639 48.1663 33.4174 48.1047C33.2709 48.0431 33.1132 48.0152 32.9498 48.0152V48.0208Z" fill="#9A9FAB"/>
<path d="M29.8115 51.1722H28.8115V52.1722H29.8115V51.1722ZM29.8115 44.3823V43.3823H28.8115V44.3823H29.8115ZM33.5132 44.5111L33.8672 43.5758L33.8574 43.5721L33.8476 43.5686L33.5132 44.5111ZM34.1273 44.8749L33.4474 45.6082L33.4534 45.6137L33.4594 45.6192L34.1273 44.8749ZM33.778 47.5841L33.3331 46.6886L31.0976 47.799L33.4815 48.5392L33.778 47.5841ZM34.2851 47.8192L34.8441 46.9901L34.8338 46.9831L34.8233 46.9765L34.2851 47.8192ZM34.702 48.1943L35.4779 47.5635L35.4707 47.5546L35.4633 47.5459L34.702 48.1943ZM34.9161 50.0751L35.8179 50.5073L35.8218 50.4991L34.9161 50.0751ZM30.7017 45.1268V44.1268H29.7017V45.1268H30.7017ZM30.7017 47.3211H29.7017V48.3211H30.7017V47.3211ZM33.0962 47.2371L33.4787 48.1611L33.4858 48.1581L33.4928 48.1551L33.0962 47.2371ZM33.6822 45.7985L32.76 46.1853L32.7668 46.2015L32.7742 46.2174L33.6822 45.7985ZM33.4456 45.4459L34.1703 44.7569L34.1605 44.7465L34.1504 44.7365L33.4456 45.4459ZM33.0962 45.2108L32.6997 46.1288L32.7067 46.1318L32.7138 46.1347L33.0962 45.2108ZM32.9498 48.0208V49.0208H33.9498V48.0208H32.9498ZM30.7017 48.0208V47.0208H29.7017V48.0208H30.7017ZM30.7017 50.4165H29.7017V51.4165H30.7017V50.4165ZM33.3892 50.327L33.0323 49.3928L33.0169 49.3987L33.0017 49.4051L33.3892 50.327ZM34.0541 49.7L34.954 50.1362L34.9575 50.1288L34.961 50.1214L34.0541 49.7ZM33.8005 48.3566L34.5233 47.6655L34.5144 47.6562L34.5053 47.6472L33.8005 48.3566ZM32.9498 48.0152V47.0152H31.9498V48.0152H32.9498ZM33.0174 51.1722V50.1722H29.8115V51.1722V52.1722H33.0174V51.1722ZM29.8115 51.1722H30.8115V44.3823H29.8115H28.8115V51.1722H29.8115ZM29.8115 44.3823V45.3823H32.73V44.3823V43.3823H29.8115V44.3823ZM32.73 44.3823V45.3823C32.911 45.3823 33.0564 45.4101 33.1788 45.4535L33.5132 44.5111L33.8476 43.5686C33.4966 43.4441 33.1237 43.3823 32.73 43.3823V44.3823ZM33.5132 44.5111L33.1592 45.4463C33.3094 45.5031 33.3965 45.561 33.4474 45.6082L34.1273 44.8749L34.8072 44.1416C34.5201 43.8754 34.1903 43.6981 33.8672 43.5758L33.5132 44.5111ZM34.1273 44.8749L33.4594 45.6192C33.5228 45.676 33.5758 45.7477 33.6172 45.842L34.533 45.4403L35.4487 45.0385C35.2986 44.6963 35.0812 44.3873 34.7952 44.1306L34.1273 44.8749ZM34.533 45.4403L33.6172 45.842C33.6531 45.9238 33.6795 46.032 33.6795 46.1736H34.6795H35.6795C35.6795 45.7778 35.6044 45.3933 35.4487 45.0385L34.533 45.4403ZM34.6795 46.1736H33.6795C33.6795 46.2254 33.6717 46.2768 33.6566 46.3255L34.6118 46.6214L35.5671 46.9172C35.6421 46.6748 35.6795 46.4239 35.6795 46.1736H34.6795ZM34.6118 46.6214L33.6566 46.3255C33.6436 46.3677 33.6196 46.4204 33.5782 46.485L34.4203 47.0244L35.2624 47.5638C35.3787 47.382 35.49 47.1661 35.5671 46.9172L34.6118 46.6214ZM34.4203 47.0244L33.5782 46.485C33.5491 46.5304 33.5182 46.5649 33.4877 46.5906L34.1329 47.3546L34.7781 48.1187C34.9731 47.9541 35.1337 47.7647 35.2624 47.5638L34.4203 47.0244ZM34.1329 47.3546L33.4877 46.5906C33.4487 46.6236 33.4014 46.6546 33.3331 46.6886L33.778 47.5841L34.2229 48.4797C34.4024 48.3905 34.5918 48.276 34.7781 48.1187L34.1329 47.3546ZM33.778 47.5841L33.4815 48.5392C33.5773 48.5689 33.6649 48.6097 33.7468 48.662L34.2851 47.8192L34.8233 46.9765C34.5897 46.8273 34.3393 46.7113 34.0745 46.6291L33.778 47.5841ZM34.2851 47.8192L33.7261 48.6484C33.8032 48.7004 33.8714 48.7613 33.9407 48.8427L34.702 48.1943L35.4633 47.5459C35.2847 47.3362 35.0824 47.1508 34.8441 46.9901L34.2851 47.8192ZM34.702 48.1943L33.9261 48.8251C33.9808 48.8924 34.0207 48.9619 34.0481 49.0344L34.9837 48.6813L35.9193 48.3281C35.8114 48.0424 35.6598 47.7872 35.4779 47.5635L34.702 48.1943ZM34.9837 48.6813L34.0481 49.0344C34.0709 49.0948 34.0851 49.1649 34.0851 49.2522H35.0851H36.0851C36.0851 48.9365 36.0317 48.626 35.9193 48.3281L34.9837 48.6813ZM35.0851 49.2522H34.0851C34.0851 49.4367 34.0519 49.5626 34.0104 49.6511L34.9161 50.0751L35.8218 50.4991C36.0057 50.1062 36.0851 49.6835 36.0851 49.2522H35.0851ZM34.9161 50.0751L34.0143 49.6429C33.9581 49.7602 33.8898 49.8462 33.8132 49.9111L34.4597 50.674L35.1062 51.4369C35.4128 51.1772 35.6488 50.8601 35.8179 50.5073L34.9161 50.0751ZM34.4597 50.674L33.8132 49.9111C33.7217 49.9886 33.6136 50.051 33.4797 50.0963L33.8005 51.0435L34.1213 51.9906C34.4833 51.868 34.8146 51.6841 35.1062 51.4369L34.4597 50.674ZM33.8005 51.0435L33.4797 50.0963C33.3307 50.1468 33.1797 50.1722 33.0286 50.1722V51.1722V52.1722C33.4072 52.1722 33.7745 52.1081 34.1213 51.9906L33.8005 51.0435ZM33.0286 51.1722V50.1722H33.0174V51.1722V52.1722H33.0286V51.1722ZM32.685 45.1268V44.1268H30.7017V45.1268V46.1268H32.685V45.1268ZM30.7017 45.1268H29.7017V47.3211H30.7017H31.7017V45.1268H30.7017ZM30.7017 47.3211V48.3211H32.6793V47.3211V46.3211H30.7017V47.3211ZM32.6793 47.3211V48.3211C32.9622 48.3211 33.2271 48.2652 33.4787 48.1611L33.0962 47.2371L32.7138 46.3131C32.7013 46.3183 32.6951 46.3196 32.6933 46.32C32.6916 46.3204 32.6878 46.3211 32.6793 46.3211V47.3211ZM33.0962 47.2371L33.4928 48.1551C33.7304 48.0525 33.9457 47.9096 34.1298 47.7368L33.4456 47.0076L32.7613 46.2784C32.7426 46.2959 32.7213 46.3098 32.6997 46.3191L33.0962 47.2371ZM33.4456 47.0076L34.1298 47.7368C34.344 47.5359 34.4994 47.2976 34.6044 47.0473L33.6822 46.6605L32.76 46.2738C32.756 46.2834 32.7533 46.2872 32.7535 46.287C32.7538 46.2865 32.7562 46.2831 32.7613 46.2784L33.4456 47.0076ZM33.6822 46.6605L34.6044 47.0473C34.7049 46.8076 34.7724 46.5308 34.7724 46.2295H33.7724H32.7724C32.7724 46.2305 32.7722 46.2448 32.76 46.2738L33.6822 46.6605ZM33.7724 46.2295H34.7724C34.7724 45.9531 34.7204 45.6618 34.5902 45.3796L33.6822 45.7985L32.7742 46.2174C32.7715 46.2117 32.7708 46.2082 32.7709 46.2088C32.7711 46.2096 32.7724 46.2161 32.7724 46.2295H33.7724ZM33.6822 45.7985L34.6044 45.4118C34.4909 45.1412 34.3294 44.9242 34.1703 44.7569L33.4456 45.4459L32.7208 46.1348C32.7533 46.1691 32.7608 46.1871 32.76 46.1853L33.6822 45.7985ZM33.4456 45.4459L34.1504 44.7365C33.9652 44.5525 33.7452 44.3971 33.4787 44.2868L33.0962 45.2108L32.7138 46.1347C32.7187 46.1368 32.7207 46.1381 32.7221 46.139C32.7239 46.1402 32.7299 46.1445 32.7408 46.1553L33.4456 45.4459ZM33.0962 45.2108L33.4928 44.2928C33.2333 44.1806 32.9569 44.1268 32.685 44.1268V45.1268V46.1268C32.6893 46.1268 32.6932 46.1273 32.6961 46.1278C32.699 46.1284 32.7002 46.129 32.6997 46.1288L33.0962 45.2108ZM32.9498 48.0208V47.0208H30.7017V48.0208V49.0208H32.9498V48.0208ZM30.7017 48.0208H29.7017V50.4165H30.7017H31.7017V48.0208H30.7017ZM30.7017 50.4165V51.4165H32.9385V50.4165V49.4165H30.7017V50.4165ZM32.9385 50.4165V51.4165C33.2149 51.4165 33.4997 51.3653 33.7767 51.2488L33.3892 50.327L33.0017 49.4051C32.9858 49.4118 32.9664 49.4165 32.9385 49.4165V50.4165ZM33.3892 50.327L33.7462 51.2611C34.0231 51.1553 34.263 50.9979 34.4644 50.8079L33.778 50.0807L33.0916 49.3534C33.0676 49.3761 33.0483 49.3867 33.0323 49.3928L33.3892 50.327ZM33.778 50.0807L34.4644 50.8079C34.6694 50.6144 34.8303 50.3913 34.954 50.1362L34.0541 49.7L33.1542 49.2639C33.1313 49.311 33.112 49.3342 33.0916 49.3534L33.778 50.0807ZM34.0541 49.7L34.961 50.1214C35.0985 49.8253 35.1555 49.5102 35.1555 49.2074H34.1555H33.1555C33.1555 49.263 33.1448 49.2837 33.1471 49.2787L34.0541 49.7ZM34.1555 49.2074H35.1555C35.1555 48.9014 35.0931 48.6117 34.9797 48.3455L34.0597 48.7373L33.1396 49.129C33.1502 49.1539 33.1555 49.1776 33.1555 49.2074H34.1555ZM34.0597 48.7373L34.9797 48.3455C34.8589 48.0617 34.6902 47.8401 34.5233 47.6655L33.8005 48.3566L33.0778 49.0477C33.125 49.0971 33.1365 49.1217 33.1396 49.129L34.0597 48.7373ZM33.8005 48.3566L34.5053 47.6472C34.2977 47.4409 34.0568 47.2888 33.8049 47.1828L33.4174 48.1047L33.0299 49.0266C33.0709 49.0438 33.0893 49.0596 33.0957 49.066L33.8005 48.3566ZM33.4174 48.1047L33.8049 47.1828C33.5197 47.063 33.2277 47.0152 32.9498 47.0152V48.0152V49.0152C32.9986 49.0152 33.0221 49.0233 33.0299 49.0266L33.4174 48.1047ZM32.9498 48.0152H31.9498V48.0208H32.9498H33.9498V48.0152H32.9498Z" fill="#9A9FAB" mask="url(#path-17-inside-1_51856_53367)"/>
<mask id="path-19-inside-2_51856_53367" fill="white">
<path d="M41.4214 48.8156H39.4888V51.1722H38.5986V44.3823H41.4045C41.7369 44.3823 42.0411 44.4383 42.3172 44.5502C42.5933 44.6622 42.8355 44.8133 43.0384 45.0149C43.2412 45.2108 43.3933 45.4459 43.506 45.7201C43.6187 45.9944 43.675 46.2911 43.675 46.6102C43.675 46.9292 43.6187 47.2315 43.506 47.5002C43.3933 47.7689 43.2356 48.004 43.0384 48.1999C42.8412 48.3958 42.6045 48.5469 42.3285 48.6589C42.0524 48.7708 41.7538 48.8212 41.4214 48.8212V48.8156ZM41.3706 45.1548H39.4832V48.0431H41.3763C41.5791 48.0431 41.765 48.004 41.9341 47.9312C42.1031 47.8584 42.2552 47.7577 42.3792 47.6289C42.5031 47.5002 42.6045 47.349 42.6721 47.1699C42.7398 46.9964 42.7792 46.8061 42.7792 46.599C42.7792 46.3919 42.7454 46.2071 42.6721 46.028C42.5989 45.8489 42.5031 45.6978 42.3735 45.569C42.2496 45.4403 42.0975 45.3339 41.9284 45.2611C41.7538 45.1884 41.5678 45.1492 41.3706 45.1492V45.1548Z"/>
</mask>
<path d="M41.4214 48.8156H39.4888V51.1722H38.5986V44.3823H41.4045C41.7369 44.3823 42.0411 44.4383 42.3172 44.5502C42.5933 44.6622 42.8355 44.8133 43.0384 45.0149C43.2412 45.2108 43.3933 45.4459 43.506 45.7201C43.6187 45.9944 43.675 46.2911 43.675 46.6102C43.675 46.9292 43.6187 47.2315 43.506 47.5002C43.3933 47.7689 43.2356 48.004 43.0384 48.1999C42.8412 48.3958 42.6045 48.5469 42.3285 48.6589C42.0524 48.7708 41.7538 48.8212 41.4214 48.8212V48.8156ZM41.3706 45.1548H39.4832V48.0431H41.3763C41.5791 48.0431 41.765 48.004 41.9341 47.9312C42.1031 47.8584 42.2552 47.7577 42.3792 47.6289C42.5031 47.5002 42.6045 47.349 42.6721 47.1699C42.7398 46.9964 42.7792 46.8061 42.7792 46.599C42.7792 46.3919 42.7454 46.2071 42.6721 46.028C42.5989 45.8489 42.5031 45.6978 42.3735 45.569C42.2496 45.4403 42.0975 45.3339 41.9284 45.2611C41.7538 45.1884 41.5678 45.1492 41.3706 45.1492V45.1548Z" fill="#9A9FAB"/>
<path d="M41.4214 48.8156H42.4214V47.8156H41.4214V48.8156ZM39.4888 48.8156V47.8156H38.4888V48.8156H39.4888ZM39.4888 51.1722V52.1722H40.4888V51.1722H39.4888ZM38.5986 51.1722H37.5986V52.1722H38.5986V51.1722ZM38.5986 44.3823V43.3823H37.5986V44.3823H38.5986ZM43.0384 45.0149L42.3335 45.7243L42.3436 45.7341L43.0384 45.0149ZM41.4214 48.8212H40.4214V49.8212H41.4214V48.8212ZM41.3706 45.1548V46.1548H42.3706V45.1548H41.3706ZM39.4832 45.1548V44.1548H38.4832V45.1548H39.4832ZM39.4832 48.0431H38.4832V49.0431H39.4832V48.0431ZM42.6721 47.1699L41.7403 46.8069L41.7366 46.8168L42.6721 47.1699ZM42.3735 45.569L41.6531 46.2626L41.6609 46.2706L41.6687 46.2784L42.3735 45.569ZM41.9284 45.2611L42.3239 44.3426L42.313 44.3381L41.9284 45.2611ZM41.3706 45.1492V44.1492H40.3706V45.1492H41.3706ZM41.4214 48.8156V47.8156H39.4888V48.8156V49.8156H41.4214V48.8156ZM39.4888 48.8156H38.4888V51.1722H39.4888H40.4888V48.8156H39.4888ZM39.4888 51.1722V50.1722H38.5986V51.1722V52.1722H39.4888V51.1722ZM38.5986 51.1722H39.5986V44.3823H38.5986H37.5986V51.1722H38.5986ZM38.5986 44.3823V45.3823H41.4045V44.3823V43.3823H38.5986V44.3823ZM41.4045 44.3823V45.3823C41.623 45.3823 41.7978 45.4187 41.9414 45.477L42.3172 44.5502L42.693 43.6235C42.2845 43.4579 41.8508 43.3823 41.4045 43.3823V44.3823ZM42.3172 44.5502L41.9414 45.477C42.1141 45.547 42.2388 45.6302 42.3336 45.7243L43.0384 45.0149L43.7432 44.3054C43.4322 43.9965 43.0724 43.7774 42.693 43.6235L42.3172 44.5502ZM43.0384 45.0149L42.3436 45.7341C42.4342 45.8216 42.5136 45.936 42.581 46.1002L43.506 45.7201L44.431 45.3401C44.2731 44.9557 44.0482 44.5999 43.7331 44.2956L43.0384 45.0149ZM43.506 45.7201L42.581 46.1002C42.6405 46.245 42.675 46.4114 42.675 46.6102H43.675H44.675C44.675 46.1708 44.5969 45.7439 44.431 45.3401L43.506 45.7201ZM43.675 46.6102H42.675C42.675 46.8129 42.6391 46.9815 42.5838 47.1134L43.506 47.5002L44.4282 47.8869C44.5982 47.4815 44.675 47.0456 44.675 46.6102H43.675ZM43.506 47.5002L42.5838 47.1134C42.52 47.2655 42.4348 47.3899 42.3336 47.4905L43.0384 48.1999L43.7432 48.9093C44.0364 48.618 44.2666 48.2723 44.4282 47.8869L43.506 47.5002ZM43.0384 48.1999L42.3336 47.4905C42.241 47.5825 42.1202 47.6643 41.9527 47.7322L42.3285 48.6589L42.7042 49.5856C43.0889 49.4296 43.4414 49.2091 43.7432 48.9093L43.0384 48.1999ZM42.3285 48.6589L41.9527 47.7322C41.8176 47.787 41.6506 47.8212 41.4214 47.8212V48.8212V49.8212C41.857 49.8212 42.2872 49.7547 42.7042 49.5856L42.3285 48.6589ZM41.4214 48.8212H42.4214V48.8156H41.4214H40.4214V48.8212H41.4214ZM41.3706 45.1548V44.1548H39.4832V45.1548V46.1548H41.3706V45.1548ZM39.4832 45.1548H38.4832V48.0431H39.4832H40.4832V45.1548H39.4832ZM39.4832 48.0431V49.0431H41.3763V48.0431V47.0431H39.4832V48.0431ZM41.3763 48.0431V49.0431C41.7113 49.0431 42.0321 48.9777 42.3295 48.8497L41.9341 47.9312L41.5386 47.0127C41.498 47.0302 41.4469 47.0431 41.3763 47.0431V48.0431ZM41.9341 47.9312L42.3295 48.8497C42.6055 48.7309 42.8725 48.5583 43.0996 48.3225L42.3792 47.6289L41.6588 46.9354C41.6379 46.957 41.6006 46.986 41.5386 47.0127L41.9341 47.9312ZM42.3792 47.6289L43.0996 48.3225C43.3077 48.1063 43.4874 47.8417 43.6077 47.5231L42.6721 47.1699L41.7366 46.8168C41.7216 46.8564 41.6985 46.8941 41.6588 46.9354L42.3792 47.6289ZM42.6721 47.1699L43.6039 47.533C43.7145 47.2493 43.7792 46.9361 43.7792 46.599H42.7792H41.7792C41.7792 46.6761 41.7651 46.7435 41.7404 46.8069L42.6721 47.1699ZM42.7792 46.599H43.7792C43.7792 46.2757 43.725 45.9608 43.5978 45.6495L42.6721 46.028L41.7465 46.4065C41.7657 46.4535 41.7792 46.508 41.7792 46.599H42.7792ZM42.6721 46.028L43.5978 45.6495C43.4816 45.3654 43.3165 45.0962 43.0783 44.8596L42.3735 45.569L41.6687 46.2784C41.6897 46.2993 41.7162 46.3324 41.7465 46.4065L42.6721 46.028ZM42.3735 45.569L43.0939 44.8754C42.8786 44.6518 42.6163 44.4685 42.3239 44.3427L41.9284 45.2611L41.533 46.1796C41.5786 46.1993 41.6206 46.2288 41.6531 46.2626L42.3735 45.569ZM41.9284 45.2611L42.313 44.3381C42.0204 44.2162 41.7041 44.1492 41.3706 44.1492V45.1492V46.1492C41.4316 46.1492 41.4871 46.1606 41.5438 46.1842L41.9284 45.2611ZM41.3706 45.1492H40.3706V45.1548H41.3706H42.3706V45.1492H41.3706Z" fill="#9A9FAB" mask="url(#path-19-inside-2_51856_53367)"/>
<mask id="path-21-inside-3_51856_53367" fill="white">
<path d="M44.5156 47.7689C44.5156 47.2707 44.6114 46.8117 44.803 46.3807C44.9945 45.9496 45.2537 45.5746 45.5861 45.2555C45.9185 44.9365 46.3073 44.6846 46.7468 44.4999C47.1919 44.3152 47.6651 44.2256 48.1722 44.2256C48.6793 44.2256 49.1526 44.3152 49.5977 44.4999C50.0428 44.6846 50.4315 44.9365 50.7639 45.2555C51.0963 45.5746 51.3555 45.9496 51.5527 46.3807C51.7443 46.8117 51.8401 47.2763 51.8401 47.7689C51.8401 48.2615 51.7443 48.7205 51.5527 49.1459C51.3612 49.5769 51.0963 49.9519 50.7639 50.271C50.4315 50.5901 50.0428 50.8419 49.5977 51.0267C49.1526 51.2114 48.6736 51.3065 48.1722 51.3065C47.6708 51.3065 47.1919 51.2114 46.7468 51.0267C46.3017 50.8419 45.9129 50.5901 45.5861 50.271C45.2537 49.9519 44.9945 49.5769 44.803 49.1459C44.6114 48.7149 44.5156 48.2559 44.5156 47.7689ZM45.4058 47.7689C45.4058 48.1607 45.4791 48.5189 45.6256 48.8604C45.772 49.2018 45.9692 49.4873 46.2171 49.7392C46.465 49.9855 46.758 50.1814 47.0961 50.3214C47.4341 50.4613 47.7947 50.5341 48.1722 50.5341C48.5497 50.5341 48.9159 50.4613 49.254 50.3214C49.592 50.1814 49.885 49.9855 50.1385 49.7392C50.3921 49.4929 50.5893 49.2018 50.7358 48.8604C50.8822 48.5245 50.9555 48.1607 50.9555 47.7689C50.9555 47.377 50.8822 47.0188 50.7358 46.6773C50.5893 46.3415 50.3921 46.0448 50.1385 45.7985C49.885 45.5466 49.592 45.3507 49.254 45.2108C48.9159 45.0708 48.5553 44.9981 48.1722 44.9981C47.7891 44.9981 47.4285 45.0708 47.0961 45.2108C46.758 45.3507 46.465 45.5466 46.2171 45.7985C45.9692 46.0504 45.772 46.3415 45.6256 46.6773C45.4791 47.0132 45.4058 47.377 45.4058 47.7689Z"/>
</mask>
<path d="M44.5156 47.7689C44.5156 47.2707 44.6114 46.8117 44.803 46.3807C44.9945 45.9496 45.2537 45.5746 45.5861 45.2555C45.9185 44.9365 46.3073 44.6846 46.7468 44.4999C47.1919 44.3152 47.6651 44.2256 48.1722 44.2256C48.6793 44.2256 49.1526 44.3152 49.5977 44.4999C50.0428 44.6846 50.4315 44.9365 50.7639 45.2555C51.0963 45.5746 51.3555 45.9496 51.5527 46.3807C51.7443 46.8117 51.8401 47.2763 51.8401 47.7689C51.8401 48.2615 51.7443 48.7205 51.5527 49.1459C51.3612 49.5769 51.0963 49.9519 50.7639 50.271C50.4315 50.5901 50.0428 50.8419 49.5977 51.0267C49.1526 51.2114 48.6736 51.3065 48.1722 51.3065C47.6708 51.3065 47.1919 51.2114 46.7468 51.0267C46.3017 50.8419 45.9129 50.5901 45.5861 50.271C45.2537 49.9519 44.9945 49.5769 44.803 49.1459C44.6114 48.7149 44.5156 48.2559 44.5156 47.7689ZM45.4058 47.7689C45.4058 48.1607 45.4791 48.5189 45.6256 48.8604C45.772 49.2018 45.9692 49.4873 46.2171 49.7392C46.465 49.9855 46.758 50.1814 47.0961 50.3214C47.4341 50.4613 47.7947 50.5341 48.1722 50.5341C48.5497 50.5341 48.9159 50.4613 49.254 50.3214C49.592 50.1814 49.885 49.9855 50.1385 49.7392C50.3921 49.4929 50.5893 49.2018 50.7358 48.8604C50.8822 48.5245 50.9555 48.1607 50.9555 47.7689C50.9555 47.377 50.8822 47.0188 50.7358 46.6773C50.5893 46.3415 50.3921 46.0448 50.1385 45.7985C49.885 45.5466 49.592 45.3507 49.254 45.2108C48.9159 45.0708 48.5553 44.9981 48.1722 44.9981C47.7891 44.9981 47.4285 45.0708 47.0961 45.2108C46.758 45.3507 46.465 45.5466 46.2171 45.7985C45.9692 46.0504 45.772 46.3415 45.6256 46.6773C45.4791 47.0132 45.4058 47.377 45.4058 47.7689Z" fill="#9A9FAB"/>
<path d="M46.7468 44.4999L46.3634 43.5762L46.3593 43.578L46.7468 44.4999ZM51.5527 46.3807L52.4666 45.9745L52.4621 45.9646L51.5527 46.3807ZM51.5527 49.1459L50.6409 48.7353L50.6389 48.7397L51.5527 49.1459ZM45.5861 50.271L46.2847 49.5555L46.2786 49.5495L45.5861 50.271ZM46.2171 49.7392L45.5044 50.4407L45.5123 50.4486L46.2171 49.7392ZM50.7358 48.8604L49.8191 48.4606L49.8168 48.4661L50.7358 48.8604ZM50.7358 46.6773L51.6548 46.2831L51.6524 46.2775L50.7358 46.6773ZM50.1385 45.7985L49.4337 46.508L49.4417 46.5158L50.1385 45.7985ZM47.0961 45.2108L47.4786 46.1347L47.4841 46.1324L47.0961 45.2108ZM44.5156 47.7689H45.5156C45.5156 47.4042 45.5846 47.0843 45.7168 46.7868L44.803 46.3807L43.8892 45.9745C43.6382 46.5391 43.5156 47.1371 43.5156 47.7689H44.5156ZM44.803 46.3807L45.7168 46.7868C45.8584 46.4682 46.0444 46.2018 46.2786 45.977L45.5861 45.2555L44.8936 44.5341C44.463 44.9474 44.1307 45.4311 43.8892 45.9745L44.803 46.3807ZM45.5861 45.2555L46.2786 45.977C46.5178 45.7474 46.8018 45.5615 47.1343 45.4217L46.7468 44.4999L46.3593 43.578C45.8128 43.8077 45.3192 44.1256 44.8936 44.5341L45.5861 45.2555ZM46.7468 44.4999L47.1301 45.4235C47.4446 45.293 47.7865 45.2256 48.1722 45.2256V44.2256V43.2256C47.5438 43.2256 46.9391 43.3373 46.3634 43.5763L46.7468 44.4999ZM48.1722 44.2256V45.2256C48.5579 45.2256 48.8998 45.293 49.2143 45.4235L49.5977 44.4999L49.981 43.5763C49.4053 43.3373 48.8006 43.2256 48.1722 43.2256V44.2256ZM49.5977 44.4999L49.2143 45.4235C49.5501 45.5628 49.8327 45.7479 50.0715 45.977L50.7639 45.2555L51.4564 44.5341C51.0303 44.1251 50.5354 43.8064 49.981 43.5763L49.5977 44.4999ZM50.7639 45.2555L50.0715 45.977C50.3056 46.2017 50.4941 46.4705 50.6434 46.7967L51.5527 46.3807L52.4621 45.9646C52.2169 45.4288 51.8871 44.9475 51.4564 44.5341L50.7639 45.2555ZM51.5527 46.3807L50.6389 46.7868C50.7708 47.0836 50.8401 47.409 50.8401 47.7689H51.8401H52.8401C52.8401 47.1435 52.7178 46.5398 52.4665 45.9745L51.5527 46.3807ZM51.8401 47.7689H50.8401C50.8401 48.1279 50.7711 48.4461 50.6409 48.7353L51.5527 49.1459L52.4645 49.5565C52.7174 48.9948 52.8401 48.395 52.8401 47.7689H51.8401ZM51.5527 49.1459L50.6389 48.7397C50.5001 49.052 50.3106 49.32 50.0715 49.5495L50.7639 50.271L51.4564 50.9924C51.8821 50.5838 52.2222 50.1018 52.4665 49.552L51.5527 49.1459ZM50.7639 50.271L50.0715 49.5495C49.8327 49.7787 49.5501 49.9637 49.2143 50.103L49.5977 51.0267L49.981 51.9503C50.5354 51.7202 51.0303 51.4014 51.4564 50.9924L50.7639 50.271ZM49.5977 51.0267L49.2143 50.103C48.8935 50.2362 48.5452 50.3065 48.1722 50.3065V51.3065V52.3065C48.8021 52.3065 49.4116 52.1866 49.981 51.9503L49.5977 51.0267ZM48.1722 51.3065V50.3065C47.7993 50.3065 47.4509 50.2362 47.1301 50.103L46.7468 51.0267L46.3634 51.9503C46.9328 52.1866 47.5423 52.3065 48.1722 52.3065V51.3065ZM46.7468 51.0267L47.1301 50.103C46.7936 49.9634 46.5141 49.7794 46.2847 49.5555L45.5861 50.271L44.8875 50.9865C45.3117 51.4007 45.8097 51.7205 46.3634 51.9503L46.7468 51.0267ZM45.5861 50.271L46.2786 49.5495C46.0444 49.3247 45.8584 49.0584 45.7168 48.7397L44.803 49.1459L43.8892 49.552C44.1307 50.0954 44.463 50.5791 44.8936 50.9924L45.5861 50.271ZM44.803 49.1459L45.7168 48.7397C45.5839 48.4408 45.5156 48.1206 45.5156 47.7689H44.5156H43.5156C43.5156 48.3911 43.6389 48.9889 43.8892 49.552L44.803 49.1459ZM45.4058 47.7689H44.4058C44.4058 48.2918 44.5049 48.7846 44.7066 49.2547L45.6256 48.8604L46.5446 48.4661C46.4532 48.2533 46.4058 48.0296 46.4058 47.7689H45.4058ZM45.6256 48.8604L44.7066 49.2547C44.9043 49.7155 45.1732 50.1041 45.5044 50.4407L46.2171 49.7392L46.9299 49.0378C46.7653 48.8705 46.6398 48.6882 46.5446 48.4661L45.6256 48.8604ZM46.2171 49.7392L45.5123 50.4486C45.8538 50.7879 46.2567 51.0562 46.7136 51.2453L47.0961 50.3214L47.4786 49.3974C47.2594 49.3067 47.0763 49.1831 46.9219 49.0298L46.2171 49.7392ZM47.0961 50.3214L46.7136 51.2453C47.173 51.4355 47.6636 51.5341 48.1722 51.5341V50.5341V49.5341C47.9258 49.5341 47.6952 49.4871 47.4786 49.3974L47.0961 50.3214ZM48.1722 50.5341V51.5341C48.6788 51.5341 49.1752 51.4363 49.6365 51.2453L49.254 50.3214L48.8715 49.3974C48.6567 49.4863 48.4206 49.5341 48.1722 49.5341V50.5341ZM49.254 50.3214L49.6365 51.2453C50.0941 51.0559 50.4932 50.7889 50.8353 50.4565L50.1385 49.7392L49.4417 49.0219C49.2768 49.1822 49.0899 49.307 48.8715 49.3974L49.254 50.3214ZM50.1385 49.7392L50.8353 50.4565C51.1893 50.1126 51.4595 49.7097 51.6548 49.2547L50.7358 48.8604L49.8168 48.4661C49.719 48.694 49.5948 48.8732 49.4417 49.0219L50.1385 49.7392ZM50.7358 48.8604L51.6524 49.2602C51.8576 48.7896 51.9555 48.2886 51.9555 47.7689H50.9555H49.9555C49.9555 48.0328 49.9069 48.2594 49.8192 48.4606L50.7358 48.8604ZM50.9555 47.7689H51.9555C51.9555 47.2459 51.8564 46.7531 51.6548 46.2831L50.7358 46.6773L49.8168 47.0716C49.9081 47.2845 49.9555 47.5081 49.9555 47.7689H50.9555ZM50.7358 46.6773L51.6524 46.2775C51.4602 45.837 51.1927 45.4284 50.8353 45.0812L50.1385 45.7985L49.4417 46.5158C49.5914 46.6612 49.7183 46.8459 49.8192 47.0771L50.7358 46.6773ZM50.1385 45.7985L50.8433 45.0891C50.4973 44.7453 50.0948 44.4765 49.6365 44.2868L49.254 45.2108L48.8715 46.1347C49.0893 46.2249 49.2727 46.348 49.4337 46.5079L50.1385 45.7985ZM49.254 45.2108L49.6365 44.2868C49.1761 44.0962 48.6854 43.9981 48.1722 43.9981V44.9981V45.9981C48.4252 45.9981 48.6558 46.0454 48.8715 46.1347L49.254 45.2108ZM48.1722 44.9981V43.9981C47.6601 43.9981 47.1672 44.0958 46.7081 44.2891L47.0961 45.2108L47.4841 46.1324C47.6898 46.0458 47.9181 45.9981 48.1722 45.9981V44.9981ZM47.0961 45.2108L46.7136 44.2868C46.2561 44.4762 45.8497 44.7462 45.5044 45.0971L46.2171 45.7985L46.9299 46.5C47.0804 46.347 47.2599 46.2252 47.4786 46.1347L47.0961 45.2108ZM46.2171 45.7985L45.5044 45.0971C45.1696 45.4373 44.9038 45.8309 44.7089 46.2775L45.6256 46.6773L46.5422 47.0771C46.6403 46.852 46.7689 46.6635 46.9299 46.5L46.2171 45.7985ZM45.6256 46.6773L44.7089 46.2775C44.5037 46.7481 44.4058 47.2491 44.4058 47.7689H45.4058H46.4058C46.4058 47.5049 46.4544 47.2783 46.5422 47.0771L45.6256 46.6773Z" fill="#9A9FAB" mask="url(#path-21-inside-3_51856_53367)"/>
<mask id="path-23-inside-4_51856_53367" fill="white">
<path d="M59.9265 46.5262H59.0081C58.8955 46.2911 58.7546 46.0784 58.5856 45.8881C58.4165 45.6978 58.2194 45.541 58.0053 45.4067C57.7912 45.2723 57.5602 45.1716 57.3123 45.1044C57.0643 45.0372 56.8052 44.9981 56.5404 44.9981C56.1572 44.9981 55.7967 45.0708 55.4642 45.2108C55.1262 45.3507 54.8332 45.5466 54.5853 45.7985C54.3374 46.0504 54.1402 46.3415 53.9937 46.6773C53.8472 47.0132 53.774 47.377 53.774 47.7689C53.774 48.1607 53.8472 48.5189 53.9937 48.8604C54.1402 49.1963 54.3374 49.4873 54.5853 49.7392C54.8332 49.9855 55.1262 50.1814 55.4642 50.3214C55.8023 50.4613 56.1629 50.5341 56.5404 50.5341C56.8052 50.5341 57.0643 50.5005 57.3123 50.4277C57.5602 50.3605 57.7912 50.2598 58.0053 50.1254C58.2194 49.9967 58.4109 49.8344 58.5799 49.6497C58.749 49.4593 58.8898 49.2466 59.0025 49.0115H59.9265C59.8026 49.3754 59.6223 49.7 59.3913 49.9855C59.1603 50.271 58.8898 50.5117 58.5856 50.702C58.2813 50.8979 57.9545 51.0435 57.6052 51.1498C57.2559 51.2506 56.901 51.3065 56.5404 51.3065C56.0333 51.3065 55.56 51.2114 55.1149 51.0267C54.6698 50.8419 54.2811 50.5901 53.9543 50.271C53.6219 49.9519 53.3627 49.5769 53.1711 49.1459C52.9796 48.7149 52.8838 48.2559 52.8838 47.7689C52.8838 47.2819 52.9796 46.8117 53.1711 46.3807C53.3627 45.9496 53.6219 45.5746 53.9543 45.2555C54.2867 44.9365 54.6755 44.6846 55.1149 44.4999C55.56 44.3152 56.0333 44.2256 56.5404 44.2256C56.901 44.2256 57.2559 44.276 57.6052 44.3767C57.9545 44.4775 58.2813 44.6286 58.5856 44.8189C58.8898 45.0148 59.1603 45.2555 59.3913 45.541C59.6279 45.8265 59.8026 46.1568 59.9265 46.5262Z"/>
</mask>
<path d="M59.9265 46.5262H59.0081C58.8955 46.2911 58.7546 46.0784 58.5856 45.8881C58.4165 45.6978 58.2194 45.541 58.0053 45.4067C57.7912 45.2723 57.5602 45.1716 57.3123 45.1044C57.0643 45.0372 56.8052 44.9981 56.5404 44.9981C56.1572 44.9981 55.7967 45.0708 55.4642 45.2108C55.1262 45.3507 54.8332 45.5466 54.5853 45.7985C54.3374 46.0504 54.1402 46.3415 53.9937 46.6773C53.8472 47.0132 53.774 47.377 53.774 47.7689C53.774 48.1607 53.8472 48.5189 53.9937 48.8604C54.1402 49.1963 54.3374 49.4873 54.5853 49.7392C54.8332 49.9855 55.1262 50.1814 55.4642 50.3214C55.8023 50.4613 56.1629 50.5341 56.5404 50.5341C56.8052 50.5341 57.0643 50.5005 57.3123 50.4277C57.5602 50.3605 57.7912 50.2598 58.0053 50.1254C58.2194 49.9967 58.4109 49.8344 58.5799 49.6497C58.749 49.4593 58.8898 49.2466 59.0025 49.0115H59.9265C59.8026 49.3754 59.6223 49.7 59.3913 49.9855C59.1603 50.271 58.8898 50.5117 58.5856 50.702C58.2813 50.8979 57.9545 51.0435 57.6052 51.1498C57.2559 51.2506 56.901 51.3065 56.5404 51.3065C56.0333 51.3065 55.56 51.2114 55.1149 51.0267C54.6698 50.8419 54.2811 50.5901 53.9543 50.271C53.6219 49.9519 53.3627 49.5769 53.1711 49.1459C52.9796 48.7149 52.8838 48.2559 52.8838 47.7689C52.8838 47.2819 52.9796 46.8117 53.1711 46.3807C53.3627 45.9496 53.6219 45.5746 53.9543 45.2555C54.2867 44.9365 54.6755 44.6846 55.1149 44.4999C55.56 44.3152 56.0333 44.2256 56.5404 44.2256C56.901 44.2256 57.2559 44.276 57.6052 44.3767C57.9545 44.4775 58.2813 44.6286 58.5856 44.8189C58.8898 45.0148 59.1603 45.2555 59.3913 45.541C59.6279 45.8265 59.8026 46.1568 59.9265 46.5262Z" fill="#9A9FAB"/>
<path d="M59.9265 46.5262V47.5262H61.3168L60.8746 46.2081L59.9265 46.5262ZM59.0081 46.5262L58.1064 46.9584L58.3785 47.5262H59.0081V46.5262ZM55.4642 45.2108L55.8467 46.1347L55.8522 46.1324L55.4642 45.2108ZM53.9937 48.8604L53.0747 49.2547L53.0771 49.2602L53.9937 48.8604ZM54.5853 49.7392L53.8725 50.4407L53.8805 50.4486L54.5853 49.7392ZM57.3123 50.4277L57.0507 49.4625L57.0406 49.4653L57.0306 49.4682L57.3123 50.4277ZM58.0053 50.1254L57.4899 49.2685L57.4818 49.2734L57.4737 49.2784L58.0053 50.1254ZM58.5799 49.6497L59.3177 50.3247L59.3227 50.3192L59.3276 50.3137L58.5799 49.6497ZM59.0025 49.0115V48.0115H58.3729L58.1007 48.5793L59.0025 49.0115ZM59.9265 49.0115L60.8731 49.334L61.3236 48.0115H59.9265V49.0115ZM58.5856 50.702L58.0552 49.8541L58.0442 49.8612L58.5856 50.702ZM57.6052 51.1498L57.8824 52.1106L57.8894 52.1086L57.8965 52.1065L57.6052 51.1498ZM53.9543 50.271L54.6529 49.5555L54.6468 49.5495L53.9543 50.271ZM55.1149 44.4999L54.7316 43.5762L54.7274 43.578L55.1149 44.4999ZM58.5856 44.8189L59.127 43.9781L59.1159 43.9711L58.5856 44.8189ZM59.3913 45.541L58.6138 46.1701L58.6214 46.1792L59.3913 45.541ZM59.9265 46.5262V45.5262H59.0081V46.5262V47.5262H59.9265V46.5262ZM59.0081 46.5262L59.9099 46.094C59.7579 45.7769 59.5657 45.4857 59.3333 45.224L58.5856 45.8881L57.8379 46.5521C57.9435 46.671 58.033 46.8053 58.1064 46.9584L59.0081 46.5262ZM58.5856 45.8881L59.3333 45.224C59.0883 44.9482 58.8129 44.7329 58.5368 44.5596L58.0053 45.4067L57.4737 46.2537C57.6258 46.3491 57.7448 46.4473 57.8379 46.5521L58.5856 45.8881ZM58.0053 45.4067L58.5368 44.5596C58.2376 44.3719 57.9155 44.2318 57.5738 44.1392L57.3123 45.1044L57.0507 46.0696C57.2049 46.1114 57.3447 46.1727 57.4737 46.2537L58.0053 45.4067ZM57.3123 45.1044L57.5738 44.1392C57.2512 44.0518 56.9038 43.9981 56.5404 43.9981V44.9981V45.9981C56.7065 45.9981 56.8775 46.0227 57.0507 46.0696L57.3123 45.1044ZM56.5404 44.9981V43.9981C56.0282 43.9981 55.5353 44.0958 55.0762 44.2891L55.4642 45.2108L55.8522 46.1324C56.058 46.0458 56.2863 45.9981 56.5404 45.9981V44.9981ZM55.4642 45.2108L55.0818 44.2868C54.6243 44.4762 54.2179 44.7462 53.8726 45.0971L54.5853 45.7985L55.298 46.5C55.4486 46.347 55.6281 46.2252 55.8467 46.1347L55.4642 45.2108ZM54.5853 45.7985L53.8726 45.0971C53.5378 45.4373 53.2719 45.8309 53.0771 46.2775L53.9937 46.6773L54.9103 47.0771C55.0085 46.852 55.1371 46.6635 55.298 46.5L54.5853 45.7985ZM53.9937 46.6773L53.0771 46.2775C52.8719 46.7481 52.774 47.2491 52.774 47.7689H53.774H54.774C54.774 47.5049 54.8226 47.2783 54.9103 47.0771L53.9937 46.6773ZM53.774 47.7689H52.774C52.774 48.2918 52.8731 48.7846 53.0747 49.2547L53.9937 48.8604L54.9127 48.4661C54.8214 48.2533 54.774 48.0296 54.774 47.7689H53.774ZM53.9937 48.8604L53.0771 49.2602C53.2719 49.7068 53.5378 50.1005 53.8726 50.4407L54.5853 49.7392L55.298 49.0378C55.1371 48.8742 55.0085 48.6857 54.9103 48.4606L53.9937 48.8604ZM54.5853 49.7392L53.8805 50.4486C54.222 50.7879 54.6248 51.0562 55.0818 51.2453L55.4642 50.3214L55.8467 49.3974C55.6275 49.3067 55.4444 49.1831 55.2901 49.0298L54.5853 49.7392ZM55.4642 50.3214L55.0818 51.2453C55.5412 51.4355 56.0318 51.5341 56.5404 51.5341V50.5341V49.5341C56.294 49.5341 56.0634 49.4871 55.8467 49.3974L55.4642 50.3214ZM56.5404 50.5341V51.5341C56.8896 51.5341 57.2447 51.4898 57.5939 51.3872L57.3123 50.4277L57.0306 49.4682C56.884 49.5112 56.7207 49.5341 56.5404 49.5341V50.5341ZM57.3123 50.4277L57.5738 51.3929C57.9155 51.3003 58.2376 51.1602 58.5368 50.9725L58.0053 50.1254L57.4737 49.2784C57.3447 49.3594 57.2049 49.4208 57.0507 49.4625L57.3123 50.4277ZM58.0053 50.1254L58.5206 50.9824C58.8271 50.7981 59.092 50.5714 59.3177 50.3247L58.5799 49.6497L57.8422 48.9746C57.7299 49.0973 57.6116 49.1953 57.4899 49.2685L58.0053 50.1254ZM58.5799 49.6497L59.3276 50.3137C59.5601 50.052 59.7523 49.7609 59.9043 49.4437L59.0025 49.0115L58.1007 48.5793C58.0274 48.7324 57.9379 48.8667 57.8322 48.9856L58.5799 49.6497ZM59.0025 49.0115V50.0115H59.9265V49.0115V48.0115H59.0025V49.0115ZM59.9265 49.0115L58.9799 48.6891C58.8936 48.9425 58.7703 49.1632 58.6139 49.3565L59.3913 49.9855L60.1686 50.6145C60.4742 50.2369 60.7115 49.8083 60.8731 49.334L59.9265 49.0115ZM59.3913 49.9855L58.6139 49.3565C58.4506 49.5582 58.2631 49.7242 58.0552 49.8542L58.5856 50.702L59.1159 51.5498C59.5166 51.2992 59.8699 50.9838 60.1686 50.6145L59.3913 49.9855ZM58.5856 50.702L58.0442 49.8612C57.826 50.0017 57.5852 50.1106 57.314 50.1932L57.6052 51.1498L57.8965 52.1065C58.3239 51.9763 58.7366 51.7941 59.127 51.5428L58.5856 50.702ZM57.6052 51.1498L57.3281 50.189C57.0578 50.2669 56.7963 50.3065 56.5404 50.3065V51.3065V52.3065C57.0056 52.3065 57.454 52.2342 57.8824 52.1106L57.6052 51.1498ZM56.5404 51.3065V50.3065C56.1626 50.3065 55.8197 50.2365 55.4982 50.103L55.1149 51.0267L54.7316 51.9503C55.3003 52.1863 55.904 52.3065 56.5404 52.3065V51.3065ZM55.1149 51.0267L55.4982 50.103C55.1618 49.9634 54.8822 49.7794 54.6529 49.5555L53.9543 50.271L53.2557 50.9865C53.6799 51.4007 54.1779 51.7205 54.7316 51.9503L55.1149 51.0267ZM53.9543 50.271L54.6468 49.5495C54.4125 49.3247 54.2266 49.0584 54.0849 48.7397L53.1711 49.1459L52.2573 49.552C52.4988 50.0954 52.8312 50.5791 53.2618 50.9924L53.9543 50.271ZM53.1711 49.1459L54.0849 48.7397C53.9521 48.4408 53.8838 48.1206 53.8838 47.7689H52.8838H51.8838C51.8838 48.3911 52.0071 48.9889 52.2573 49.552L53.1711 49.1459ZM52.8838 47.7689H53.8838C53.8838 47.4138 53.9534 47.0828 54.0849 46.7868L53.1711 46.3807L52.2573 45.9745C52.0058 46.5405 51.8838 47.15 51.8838 47.7689H52.8838ZM53.1711 46.3807L54.0849 46.7868C54.2266 46.4682 54.4125 46.2018 54.6468 45.977L53.9543 45.2555L53.2618 44.5341C52.8312 44.9474 52.4988 45.4311 52.2573 45.9745L53.1711 46.3807ZM53.9543 45.2555L54.6468 45.977C54.886 45.7474 55.1699 45.5615 55.5024 45.4217L55.1149 44.4999L54.7274 43.578C54.181 43.8077 53.6874 44.1256 53.2618 44.5341L53.9543 45.2555ZM55.1149 44.4999L55.4982 45.4235C55.8128 45.293 56.1547 45.2256 56.5404 45.2256V44.2256V43.2256C55.9119 43.2256 55.3073 43.3373 54.7316 43.5763L55.1149 44.4999ZM56.5404 44.2256V45.2256C56.8064 45.2256 57.0681 45.2626 57.3281 45.3376L57.6052 44.3767L57.8824 43.4159C57.4437 43.2894 56.9955 43.2256 56.5404 43.2256V44.2256ZM57.6052 44.3767L57.3281 45.3376C57.5803 45.4103 57.8225 45.5211 58.0552 45.6667L58.5856 44.8189L59.1159 43.9711C58.7402 43.7361 58.3288 43.5447 57.8824 43.4159L57.6052 44.3767ZM58.5856 44.8189L58.0442 45.6597C58.2606 45.7991 58.451 45.9687 58.6139 46.1701L59.3913 45.541L60.1686 44.912C59.8695 44.5423 59.519 44.2306 59.127 43.9782L58.5856 44.8189ZM59.3913 45.541L58.6214 46.1792C58.7685 46.3567 58.8879 46.5743 58.9785 46.8443L59.9265 46.5262L60.8746 46.2081C60.7173 45.7393 60.4873 45.2963 60.1612 44.9029L59.3913 45.541Z" fill="#9A9FAB" mask="url(#path-23-inside-4_51856_53367)"/>
<mask id="path-25-inside-5_51856_53367" fill="white">
<path d="M68.0837 46.5262H67.1654C67.0527 46.2911 66.9118 46.0784 66.7428 45.8881C66.5738 45.6978 66.3766 45.541 66.1625 45.4067C65.9484 45.2723 65.7174 45.1716 65.4695 45.1044C65.2216 45.0372 64.9624 44.9981 64.6976 44.9981C64.3145 44.9981 63.9539 45.0708 63.6215 45.2108C63.2891 45.3507 62.9904 45.5466 62.7425 45.7985C62.4946 46.0504 62.2974 46.3415 62.1509 46.6773C62.0045 47.0132 61.9312 47.377 61.9312 47.7689C61.9312 48.1607 62.0045 48.5189 62.1509 48.8604C62.2974 49.1963 62.4946 49.4873 62.7425 49.7392C62.9904 49.9855 63.2834 50.1814 63.6215 50.3214C63.9595 50.4613 64.3201 50.5341 64.6976 50.5341C64.9624 50.5341 65.2216 50.5005 65.4695 50.4277C65.7174 50.3605 65.9484 50.2598 66.1625 50.1254C66.3766 49.9967 66.5681 49.8344 66.7372 49.6497C66.9062 49.4593 67.0471 49.2466 67.1597 49.0115H68.0837C67.9598 49.3754 67.7795 49.7 67.5485 49.9855C67.3175 50.271 67.0471 50.5117 66.7428 50.702C66.4386 50.8979 66.1118 51.0435 65.7625 51.1498C65.4131 51.2506 65.0582 51.3065 64.6976 51.3065C64.1905 51.3065 63.7173 51.2114 63.2722 51.0267C62.8271 50.8419 62.4383 50.5901 62.1115 50.271C61.7791 49.9519 61.5199 49.5769 61.3284 49.1459C61.1368 48.7149 61.041 48.2559 61.041 47.7689C61.041 47.2819 61.1368 46.8117 61.3284 46.3807C61.5199 45.9496 61.7791 45.5746 62.1115 45.2555C62.4439 44.9365 62.8327 44.6846 63.2722 44.4999C63.7173 44.3152 64.1905 44.2256 64.6976 44.2256C65.0582 44.2256 65.4131 44.276 65.7625 44.3767C66.1118 44.4775 66.4386 44.6286 66.7428 44.8189C67.0471 45.0148 67.3175 45.2555 67.5485 45.541C67.7851 45.8265 67.9598 46.1568 68.0837 46.5262Z"/>
</mask>
<path d="M68.0837 46.5262H67.1654C67.0527 46.2911 66.9118 46.0784 66.7428 45.8881C66.5738 45.6978 66.3766 45.541 66.1625 45.4067C65.9484 45.2723 65.7174 45.1716 65.4695 45.1044C65.2216 45.0372 64.9624 44.9981 64.6976 44.9981C64.3145 44.9981 63.9539 45.0708 63.6215 45.2108C63.2891 45.3507 62.9904 45.5466 62.7425 45.7985C62.4946 46.0504 62.2974 46.3415 62.1509 46.6773C62.0045 47.0132 61.9312 47.377 61.9312 47.7689C61.9312 48.1607 62.0045 48.5189 62.1509 48.8604C62.2974 49.1963 62.4946 49.4873 62.7425 49.7392C62.9904 49.9855 63.2834 50.1814 63.6215 50.3214C63.9595 50.4613 64.3201 50.5341 64.6976 50.5341C64.9624 50.5341 65.2216 50.5005 65.4695 50.4277C65.7174 50.3605 65.9484 50.2598 66.1625 50.1254C66.3766 49.9967 66.5681 49.8344 66.7372 49.6497C66.9062 49.4593 67.0471 49.2466 67.1597 49.0115H68.0837C67.9598 49.3754 67.7795 49.7 67.5485 49.9855C67.3175 50.271 67.0471 50.5117 66.7428 50.702C66.4386 50.8979 66.1118 51.0435 65.7625 51.1498C65.4131 51.2506 65.0582 51.3065 64.6976 51.3065C64.1905 51.3065 63.7173 51.2114 63.2722 51.0267C62.8271 50.8419 62.4383 50.5901 62.1115 50.271C61.7791 49.9519 61.5199 49.5769 61.3284 49.1459C61.1368 48.7149 61.041 48.2559 61.041 47.7689C61.041 47.2819 61.1368 46.8117 61.3284 46.3807C61.5199 45.9496 61.7791 45.5746 62.1115 45.2555C62.4439 44.9365 62.8327 44.6846 63.2722 44.4999C63.7173 44.3152 64.1905 44.2256 64.6976 44.2256C65.0582 44.2256 65.4131 44.276 65.7625 44.3767C66.1118 44.4775 66.4386 44.6286 66.7428 44.8189C67.0471 45.0148 67.3175 45.2555 67.5485 45.541C67.7851 45.8265 67.9598 46.1568 68.0837 46.5262Z" fill="#9A9FAB"/>
<path d="M68.0837 46.5262V47.5262H69.474L69.0318 46.2081L68.0837 46.5262ZM67.1654 46.5262L66.2636 46.9584L66.5357 47.5262H67.1654V46.5262ZM62.1509 48.8604L61.2319 49.2547L61.2343 49.2602L62.1509 48.8604ZM62.7425 49.7392L62.0298 50.4407L62.0377 50.4486L62.7425 49.7392ZM65.4695 50.4277L65.208 49.4625L65.1979 49.4653L65.1878 49.4682L65.4695 50.4277ZM66.1625 50.1254L65.6472 49.2685L65.639 49.2734L65.631 49.2784L66.1625 50.1254ZM66.7372 49.6497L67.4749 50.3247L67.4799 50.3192L67.4849 50.3137L66.7372 49.6497ZM67.1597 49.0115V48.0115H66.5301L66.258 48.5793L67.1597 49.0115ZM68.0837 49.0115L69.0303 49.334L69.4808 48.0115H68.0837V49.0115ZM66.7428 50.702L66.2124 49.8541L66.2014 49.8612L66.7428 50.702ZM65.7625 51.1498L66.0396 52.1106L66.0467 52.1086L66.0537 52.1065L65.7625 51.1498ZM62.1115 50.271L62.8101 49.5555L62.804 49.5495L62.1115 50.271ZM63.2722 44.4999L62.8888 43.5762L62.8847 43.578L63.2722 44.4999ZM66.7428 44.8189L67.2843 43.9781L67.2731 43.9711L66.7428 44.8189ZM67.5485 45.541L66.7711 46.1701L66.7786 46.1792L67.5485 45.541ZM68.0837 46.5262V45.5262H67.1654V46.5262V47.5262H68.0837V46.5262ZM67.1654 46.5262L68.0671 46.094C67.9151 45.7769 67.7229 45.4857 67.4905 45.224L66.7428 45.8881L65.9951 46.5521C66.1007 46.671 66.1902 46.8053 66.2636 46.9584L67.1654 46.5262ZM66.7428 45.8881L67.4905 45.224C67.2456 44.9482 66.9702 44.7329 66.694 44.5596L66.1625 45.4067L65.631 46.2537C65.783 46.3491 65.902 46.4473 65.9951 46.5521L66.7428 45.8881ZM66.1625 45.4067L66.694 44.5596C66.3949 44.3719 66.0727 44.2318 65.731 44.1392L65.4695 45.1044L65.208 46.0696C65.3621 46.1114 65.5019 46.1727 65.631 46.2537L66.1625 45.4067ZM65.4695 45.1044L65.731 44.1392C65.4084 44.0518 65.0611 43.9981 64.6976 43.9981V44.9981V45.9981C64.8637 45.9981 65.0347 46.0227 65.208 46.0696L65.4695 45.1044ZM64.6976 44.9981V43.9981C64.1854 43.9981 63.6925 44.0958 63.2335 44.2891L63.6215 45.2108L64.0095 46.1324C64.2152 46.0458 64.4435 45.9981 64.6976 45.9981V44.9981ZM63.6215 45.2108L63.2335 44.2891C62.7905 44.4756 62.3785 44.7428 62.0298 45.0971L62.7425 45.7985L63.4553 46.5C63.6024 46.3505 63.7876 46.2258 64.0095 46.1324L63.6215 45.2108ZM62.7425 45.7985L62.0298 45.0971C61.695 45.4373 61.4291 45.8309 61.2343 46.2775L62.1509 46.6773L63.0676 47.0771C63.1657 46.852 63.2943 46.6635 63.4553 46.5L62.7425 45.7985ZM62.1509 46.6773L61.2343 46.2775C61.0291 46.7481 60.9312 47.2491 60.9312 47.7689H61.9312H62.9312C62.9312 47.5049 62.9798 47.2783 63.0676 47.0771L62.1509 46.6773ZM61.9312 47.7689H60.9312C60.9312 48.2918 61.0303 48.7846 61.232 49.2547L62.1509 48.8604L63.0699 48.4661C62.9786 48.2533 62.9312 48.0296 62.9312 47.7689H61.9312ZM62.1509 48.8604L61.2343 49.2602C61.4291 49.7068 61.695 50.1005 62.0298 50.4407L62.7425 49.7392L63.4553 49.0378C63.2943 48.8742 63.1657 48.6857 63.0676 48.4606L62.1509 48.8604ZM62.7425 49.7392L62.0377 50.4486C62.3792 50.7879 62.7821 51.0562 63.239 51.2453L63.6215 50.3214L64.004 49.3974C63.7848 49.3067 63.6016 49.1831 63.4473 49.0298L62.7425 49.7392ZM63.6215 50.3214L63.239 51.2453C63.6984 51.4355 64.189 51.5341 64.6976 51.5341V50.5341V49.5341C64.4512 49.5341 64.2206 49.4871 64.004 49.3974L63.6215 50.3214ZM64.6976 50.5341V51.5341C65.0469 51.5341 65.4019 51.4898 65.7511 51.3872L65.4695 50.4277L65.1878 49.4682C65.0413 49.5112 64.8779 49.5341 64.6976 49.5341V50.5341ZM65.4695 50.4277L65.731 51.3929C66.0727 51.3003 66.3949 51.1602 66.694 50.9725L66.1625 50.1254L65.631 49.2784C65.5019 49.3594 65.3621 49.4208 65.208 49.4625L65.4695 50.4277ZM66.1625 50.1254L66.6778 50.9824C66.9843 50.7981 67.2492 50.5714 67.4749 50.3247L66.7372 49.6497L65.9994 48.9746C65.8871 49.0973 65.7688 49.1953 65.6472 49.2685L66.1625 50.1254ZM66.7372 49.6497L67.4849 50.3137C67.7173 50.052 67.9095 49.7609 68.0615 49.4437L67.1597 49.0115L66.258 48.5793C66.1846 48.7324 66.0951 48.8667 65.9895 48.9856L66.7372 49.6497ZM67.1597 49.0115V50.0115H68.0837V49.0115V48.0115H67.1597V49.0115ZM68.0837 49.0115L67.1372 48.6891C67.0508 48.9425 66.9275 49.1632 66.7711 49.3565L67.5485 49.9855L68.3259 50.6145C68.6315 50.2369 68.8688 49.8083 69.0303 49.334L68.0837 49.0115ZM67.5485 49.9855L66.7711 49.3565C66.6079 49.5582 66.4203 49.7242 66.2125 49.8542L66.7428 50.702L67.2731 51.5498C67.6738 51.2992 68.0271 50.9838 68.3259 50.6145L67.5485 49.9855ZM66.7428 50.702L66.2014 49.8612C65.9833 50.0017 65.7424 50.1106 65.4712 50.1932L65.7625 51.1498L66.0537 52.1065C66.4812 51.9763 66.8939 51.7941 67.2842 51.5428L66.7428 50.702ZM65.7625 51.1498L65.4853 50.189C65.215 50.2669 64.9536 50.3065 64.6976 50.3065V51.3065V52.3065C65.1628 52.3065 65.6112 52.2342 66.0396 52.1106L65.7625 51.1498ZM64.6976 51.3065V50.3065C64.3198 50.3065 63.977 50.2365 63.6555 50.103L63.2722 51.0267L62.8888 51.9503C63.4575 52.1863 64.0613 52.3065 64.6976 52.3065V51.3065ZM63.2722 51.0267L63.6555 50.103C63.319 49.9634 63.0395 49.7794 62.8101 49.5555L62.1115 50.271L61.4129 50.9865C61.8371 51.4007 62.3351 51.7205 62.8888 51.9503L63.2722 51.0267ZM62.1115 50.271L62.804 49.5495C62.5698 49.3247 62.3838 49.0584 62.2422 48.7397L61.3284 49.1459L60.4145 49.552C60.6561 50.0954 60.9884 50.5791 61.419 50.9924L62.1115 50.271ZM61.3284 49.1459L62.2422 48.7397C62.1093 48.4408 62.041 48.1206 62.041 47.7689H61.041H60.041C60.041 48.3911 60.1643 48.9889 60.4145 49.552L61.3284 49.1459ZM61.041 47.7689H62.041C62.041 47.4138 62.1106 47.0828 62.2422 46.7868L61.3284 46.3807L60.4145 45.9745C60.163 46.5405 60.041 47.15 60.041 47.7689H61.041ZM61.3284 46.3807L62.2422 46.7868C62.3838 46.4682 62.5698 46.2018 62.804 45.977L62.1115 45.2555L61.419 44.5341C60.9884 44.9474 60.6561 45.4311 60.4145 45.9745L61.3284 46.3807ZM62.1115 45.2555L62.804 45.977C63.0432 45.7474 63.3272 45.5615 63.6596 45.4217L63.2722 44.4999L62.8847 43.578C62.3382 43.8077 61.8446 44.1256 61.419 44.5341L62.1115 45.2555ZM63.2722 44.4999L63.6555 45.4235C63.97 45.293 64.3119 45.2256 64.6976 45.2256V44.2256V43.2256C64.0692 43.2256 63.4645 43.3373 62.8888 43.5763L63.2722 44.4999ZM64.6976 44.2256V45.2256C64.9636 45.2256 65.2253 45.2626 65.4853 45.3376L65.7625 44.3767L66.0396 43.4159C65.6009 43.2894 65.1527 43.2256 64.6976 43.2256V44.2256ZM65.7625 44.3767L65.4853 45.3376C65.7375 45.4103 65.9797 45.5211 66.2125 45.6667L66.7428 44.8189L67.2731 43.9711C66.8974 43.7361 66.486 43.5447 66.0396 43.4159L65.7625 44.3767ZM66.7428 44.8189L66.2014 45.6597C66.4179 45.7991 66.6082 45.9687 66.7711 46.1701L67.5485 45.541L68.3259 44.912C68.0268 44.5423 67.6762 44.2306 67.2842 43.9782L66.7428 44.8189ZM67.5485 45.541L66.7786 46.1792C66.9258 46.3567 67.0451 46.5743 67.1357 46.8443L68.0837 46.5262L69.0318 46.2081C68.8745 45.7393 68.6445 45.2963 68.3184 44.9029L67.5485 45.541Z" fill="#9A9FAB" mask="url(#path-25-inside-5_51856_53367)"/>
<mask id="path-27-inside-6_51856_53367" fill="white">
<path d="M69.5518 44.3823H70.442V49.6329L74.6563 44.3823H75.4057V51.1722H74.5155V45.9329L70.3067 51.1722H69.5518V44.3823Z"/>
</mask>
<path d="M69.5518 44.3823H70.442V49.6329L74.6563 44.3823H75.4057V51.1722H74.5155V45.9329L70.3067 51.1722H69.5518V44.3823Z" fill="#9A9FAB"/>
<path d="M69.5518 44.3823V43.3823H68.5518V44.3823H69.5518ZM70.442 44.3823H71.442V43.3823H70.442V44.3823ZM70.442 49.6329H69.442V52.4763L71.2218 50.2588L70.442 49.6329ZM74.6563 44.3823V43.3823H74.1767L73.8765 43.7564L74.6563 44.3823ZM75.4057 44.3823H76.4057V43.3823H75.4057V44.3823ZM75.4057 51.1722V52.1722H76.4057V51.1722H75.4057ZM74.5155 51.1722H73.5155V52.1722H74.5155V51.1722ZM74.5155 45.9329H75.5155V43.0912L73.7359 45.3066L74.5155 45.9329ZM70.3067 51.1722V52.1722H70.7861L71.0864 51.7985L70.3067 51.1722ZM69.5518 51.1722H68.5518V52.1722H69.5518V51.1722ZM69.5518 44.3823V45.3823H70.442V44.3823V43.3823H69.5518V44.3823ZM70.442 44.3823H69.442V49.6329H70.442H71.442V44.3823H70.442ZM70.442 49.6329L71.2218 50.2588L75.4362 45.0083L74.6563 44.3823L73.8765 43.7564L69.6621 49.0069L70.442 49.6329ZM74.6563 44.3823V45.3823H75.4057V44.3823V43.3823H74.6563V44.3823ZM75.4057 44.3823H74.4057V51.1722H75.4057H76.4057V44.3823H75.4057ZM75.4057 51.1722V50.1722H74.5155V51.1722V52.1722H75.4057V51.1722ZM74.5155 51.1722H75.5155V45.9329H74.5155H73.5155V51.1722H74.5155ZM74.5155 45.9329L73.7359 45.3066L69.5271 50.5459L70.3067 51.1722L71.0864 51.7985L75.2951 46.5591L74.5155 45.9329ZM70.3067 51.1722V50.1722H69.5518V51.1722V52.1722H70.3067V51.1722ZM69.5518 51.1722H70.5518V44.3823H69.5518H68.5518V51.1722H69.5518Z" fill="#9A9FAB" mask="url(#path-27-inside-6_51856_53367)"/>
<mask id="path-29-inside-7_51856_53367" fill="white">
<path d="M77.125 44.3823H78.0152V49.6329L82.2296 44.3823H82.9789V51.1722H82.0887V45.9329L77.88 51.1722H77.125V44.3823Z"/>
</mask>
<path d="M77.125 44.3823H78.0152V49.6329L82.2296 44.3823H82.9789V51.1722H82.0887V45.9329L77.88 51.1722H77.125V44.3823Z" fill="#9A9FAB"/>
<path d="M77.125 44.3823V43.3823H76.125V44.3823H77.125ZM78.0152 44.3823H79.0152V43.3823H78.0152V44.3823ZM78.0152 49.6329H77.0152V52.4763L78.7951 50.2588L78.0152 49.6329ZM82.2296 44.3823V43.3823H81.7499L81.4497 43.7564L82.2296 44.3823ZM82.9789 44.3823H83.9789V43.3823H82.9789V44.3823ZM82.9789 51.1722V52.1722H83.9789V51.1722H82.9789ZM82.0887 51.1722H81.0887V52.1722H82.0887V51.1722ZM82.0887 45.9329H83.0887V43.0912L81.3091 45.3066L82.0887 45.9329ZM77.88 51.1722V52.1722H78.3594L78.6596 51.7985L77.88 51.1722ZM77.125 51.1722H76.125V52.1722H77.125V51.1722ZM77.125 44.3823V45.3823H78.0152V44.3823V43.3823H77.125V44.3823ZM78.0152 44.3823H77.0152V49.6329H78.0152H79.0152V44.3823H78.0152ZM78.0152 49.6329L78.7951 50.2588L83.0094 45.0083L82.2296 44.3823L81.4497 43.7564L77.2353 49.0069L78.0152 49.6329ZM82.2296 44.3823V45.3823H82.9789V44.3823V43.3823H82.2296V44.3823ZM82.9789 44.3823H81.9789V51.1722H82.9789H83.9789V44.3823H82.9789ZM82.9789 51.1722V50.1722H82.0887V51.1722V52.1722H82.9789V51.1722ZM82.0887 51.1722H83.0887V45.9329H82.0887H81.0887V51.1722H82.0887ZM82.0887 45.9329L81.3091 45.3066L77.1004 50.5459L77.88 51.1722L78.6596 51.7985L82.8683 46.5591L82.0887 45.9329ZM77.88 51.1722V50.1722H77.125V51.1722V52.1722H77.88V51.1722ZM77.125 51.1722H78.125V44.3823H77.125H76.125V51.1722H77.125Z" fill="#9A9FAB" mask="url(#path-29-inside-7_51856_53367)"/>
<path d="M118.91 10.9092H20.5879V133.636H118.91V10.9092Z" stroke="#9A9FAB" stroke-width="2.51" stroke-miterlimit="10"/>
</svg>
